<svg width="145" height="154" viewBox="0 0 145 154" fill="none" xmlns="http://www.w3.org/2000/svg">
<rect y="0.143066" width="145" height="153.714" rx="10" fill="#F4F4F4" fill-opacity="0.06"/>
<path fill-rule="evenodd" clip-rule="evenodd" d="M124.828 32.6623V101.252H113.168V32.6623H124.828ZM114.883 18.2584V23.4598H113.225V27.8038H125V23.4598H118.255V20.1447C118.179 19.1158 118.674 18.6204 119.741 18.6586H125V14.1431H117.398C115.874 15.553 115.035 16.9248 114.883 18.2584ZM105.223 55.4682V93.7641C105.261 94.5263 105.28 95.2693 105.28 95.9933C105.28 110.893 98.8593 118.342 86.0178 118.342H84.4745V106.682C90.7619 106.644 93.8866 102.281 93.8485 93.5927V55.4682H105.223ZM69.8424 101.252H81.5027V32.662H69.8424V101.252ZM47.1501 67.1857C43.7587 67.3762 41.9296 68.8814 41.6629 71.7012V100.509H45.7211C49.4936 100.356 51.2845 98.756 51.094 95.7076V67.1857H47.1501ZM29.5454 72.8443C30.7267 61.6413 37.8524 55.8684 50.9225 55.5254H62.9829V90.9063C62.9829 106.339 55.8762 113.598 41.6629 112.684C40.2911 128.04 34.1371 135.718 23.2009 135.718H20V123.486C26.2874 123.448 29.412 119.276 29.3739 110.969V72.8443H29.5454ZM74.5619 122.282C73.3326 122.282 72.2475 122.581 71.3068 123.18C70.8792 123.458 70.6654 123.736 70.6654 124.014C70.6654 124.398 70.9113 124.591 71.403 124.591C71.4671 124.591 71.5313 124.585 71.5954 124.575C71.6702 124.564 71.7451 124.543 71.8199 124.511C72.333 124.115 72.7767 123.864 73.1508 123.757C73.5464 123.629 73.9526 123.559 74.3695 123.548C74.7864 123.527 75.1819 123.511 75.5561 123.5C76.2723 123.468 76.6305 123.308 76.6305 123.019C76.6305 122.816 76.3739 122.629 75.8608 122.458C75.7004 122.394 75.5133 122.351 75.2995 122.33C75.0857 122.298 74.8399 122.282 74.5619 122.282ZM74.594 131.165C74.8399 130.043 74.7116 129.321 74.2091 129C73.5036 128.851 73.092 129.23 72.9744 130.139C72.8695 132.165 72.0893 133.217 70.634 133.295V133.266C70.3988 133.288 70.1315 133.229 69.8322 133.09C69.5329 132.951 69.3298 132.801 69.2229 132.641C69.1267 132.481 69.0411 132.277 68.9663 132.032C68.8915 131.775 68.8487 131.486 68.838 131.166C68.838 130.845 68.7792 130.572 68.6616 130.348C68.5547 130.113 68.3623 130.011 68.0844 130.043C67.8171 130.065 67.614 130.177 67.475 130.38C67.3468 130.583 67.2345 130.845 67.1383 131.166C67.0421 131.486 66.9405 131.791 66.8336 132.08C66.7267 132.368 66.4862 132.652 66.1121 132.93C65.7736 133.178 65.3889 133.297 64.9578 133.287V133.266C64.1881 133.32 63.7124 132.785 63.5307 131.663C63.3596 130.53 62.9855 129.717 62.4082 129.225C61.8416 128.734 60.2114 129.461 57.5175 131.406C54.8236 133.341 51.8998 134.298 48.7463 134.276C45.5927 134.255 42.7919 132.978 40.3438 130.444C39.6811 130.006 39.4886 130.118 39.7666 130.781L40.1995 131.695C41.5251 134.014 43.6685 135.49 46.6296 136.12C49.5908 136.751 52.5199 136.238 55.4169 134.581C58.3246 132.913 60.0831 131.871 60.6924 131.454C61.3018 131.037 61.7775 131.465 62.1196 132.737C62.4649 133.972 63.3788 134.643 64.8613 134.751V134.758C64.8729 134.756 64.8845 134.755 64.896 134.754C64.9165 134.755 64.9371 134.756 64.9578 134.757V134.747C65.685 134.663 66.1767 134.56 66.4328 134.437C66.7107 134.309 66.9673 134.148 67.2024 133.956C67.4376 133.753 67.614 133.533 67.7316 133.298C67.8492 133.052 67.9561 133.101 68.0523 133.443C68.1592 133.774 68.3997 134.063 68.7739 134.309C69.148 134.554 69.7681 134.704 70.634 134.758V134.721C72.6095 134.618 73.9295 133.433 74.594 131.165ZM63.3861 138.381C62.9905 138.638 62.7928 138.9 62.7928 139.167C62.7928 139.531 63.028 139.76 63.4983 139.857C63.5518 139.857 63.6106 139.851 63.6747 139.841C63.7389 139.83 63.8083 139.809 63.8832 139.777C64.3535 139.402 64.7651 139.167 65.1179 139.071C65.4813 138.953 65.8555 138.884 66.2403 138.863C66.6252 138.852 66.994 138.841 67.3468 138.83C67.9989 138.702 68.3249 138.499 68.3249 138.221C68.3249 138.029 68.0844 137.852 67.6033 137.692C67.4644 137.638 67.2933 137.596 67.0902 137.564C66.8871 137.542 66.6572 137.532 66.4007 137.532C65.2675 137.532 64.2627 137.815 63.3861 138.381ZM72.6547 103.97C72.6226 103.061 72.3019 102.96 71.6926 103.665C71.0298 104.542 69.8859 106.108 68.261 108.364C66.6468 110.609 64.8509 112.966 62.8732 115.435C60.8956 117.894 58.9874 120.47 57.1487 123.164C55.31 125.847 54.5456 127.707 54.8556 128.744C54.8343 128.99 54.9198 129.076 55.1122 129.001C57.2395 125.719 59.6288 122.368 62.2799 118.947C64.9418 115.515 66.7858 113.094 67.812 111.683C68.8383 110.272 69.624 109.155 70.1692 108.332C70.7251 107.498 71.1848 106.776 71.5482 106.167C71.9117 105.557 72.2805 104.825 72.6547 103.97Z" fill="#F4F4F4"/>
</svg>
