<svg width="1253" height="5082" viewBox="0 0 1253 5082" fill="none" xmlns="http://www.w3.org/2000/svg">
<path d="M481.451 1.07345C394.529 -0.427063 219.939 19.8408 326.5 175.576C459.701 370.245 -12.2123 522.44 63.9028 370.245C140.018 218.049 718.492 391.481 250.385 649.86C-124.102 856.563 611.931 910.598 1026.76 911.778C1171.94 919.448 1394.78 996.388 1124.63 1242.78C786.941 1550.78 175.964 1681.76 213.174 1869.39C250.385 2057.02 1585.8 2873.07 1124.63 2873.07C109.977 2873.07 1034.43 3344.97 635.835 3505.07C514.278 3553.9 0.179611 3471.24 26.9471 3781.07C76.8195 4358.35 1304.23 4084.27 1168.61 4401.07C999.093 4797.07 26.9469 4945.07 1.00002 5081.07" stroke="#364C84" stroke-width="1.5" stroke-linecap="square"/>
</svg>
