<svg width="34" height="34" viewBox="0 0 34 34" fill="none" xmlns="http://www.w3.org/2000/svg">
<path d="M22.4499 16.8C22.4499 18.1924 21.8968 19.5277 20.9122 20.5123C19.9277 21.4969 18.5923 22.05 17.1999 22.05C15.8075 22.05 14.4722 21.4969 13.4876 20.5123C12.503 19.5277 11.9499 18.1924 11.9499 16.8C11.9499 16.5008 11.9814 16.2085 12.0357 15.925H10.1999V22.9198C10.1999 23.4063 10.5937 23.8 11.0802 23.8H23.3214C23.5546 23.7995 23.778 23.7066 23.9427 23.5416C24.1074 23.3765 24.1999 23.1529 24.1999 22.9198V15.925H22.3642C22.4184 16.2085 22.4499 16.5008 22.4499 16.8ZM17.1999 20.3C17.6596 20.2999 18.1149 20.2092 18.5396 20.0332C18.9643 19.8571 19.3501 19.5992 19.6751 19.274C20.0001 18.9488 20.2579 18.5628 20.4338 18.138C20.6096 17.7133 20.7 17.258 20.6999 16.7983C20.6998 16.3385 20.6091 15.8833 20.4331 15.4586C20.257 15.0339 19.9991 14.648 19.6739 14.323C19.3487 13.998 18.9627 13.7402 18.5379 13.5644C18.1132 13.3886 17.6579 13.2981 17.1982 13.2983C16.2697 13.2985 15.3793 13.6675 14.7229 14.3243C14.0665 14.981 13.6979 15.8715 13.6982 16.8C13.6984 17.7285 14.0675 18.6189 14.7242 19.2752C15.3809 19.9316 16.2714 20.3002 17.1999 20.3ZM21.3999 13.125H23.4982C23.6376 13.125 23.7713 13.0697 23.87 12.9713C23.9687 12.8729 24.0244 12.7394 24.0249 12.6V10.5018C24.0249 10.362 23.9694 10.2281 23.8706 10.1293C23.7718 10.0305 23.6379 9.975 23.4982 9.975H21.3999C21.2602 9.975 21.1262 10.0305 21.0274 10.1293C20.9287 10.2281 20.8732 10.362 20.8732 10.5018V12.6C20.8749 12.8888 21.1112 13.125 21.3999 13.125ZM17.1999 0C12.7443 0 8.47112 1.76999 5.32051 4.92061C2.1699 8.07122 0.399902 12.3444 0.399902 16.8C0.399902 21.2556 2.1699 25.5288 5.32051 28.6794C8.47112 31.83 12.7443 33.6 17.1999 33.6C19.4061 33.6 21.5907 33.1655 23.629 32.3212C25.6673 31.4769 27.5193 30.2394 29.0793 28.6794C30.6393 27.1194 31.8768 25.2674 32.7211 23.2291C33.5654 21.1908 33.9999 19.0062 33.9999 16.8C33.9999 14.5938 33.5654 12.4092 32.7211 10.3709C31.8768 8.33265 30.6393 6.48063 29.0793 4.92061C27.5193 3.36058 25.6673 2.1231 23.629 1.27882C21.5907 0.434545 19.4061 0 17.1999 0ZM25.9499 23.6058C25.9499 24.675 25.0749 25.55 24.0057 25.55H10.3942C9.3249 25.55 8.4499 24.675 8.4499 23.6058V9.99425C8.4499 8.925 9.3249 8.05 10.3942 8.05H24.0057C25.0749 8.05 25.9499 8.925 25.9499 9.99425V23.6058Z" fill="#F4F4F4"/>
</svg>
