<svg width="25" height="24" viewBox="0 0 25 24" fill="none" xmlns="http://www.w3.org/2000/svg">
<path d="M16.4998 22.3199C16.1598 22.3199 15.8298 22.22 15.5398 22.03L11.2798 19.1899H9.38977C9.15977 19.1899 8.93974 19.08 8.79974 18.9C8.65974 18.71 8.60977 18.4699 8.66977 18.2499C8.72977 18.0099 8.75977 17.7699 8.75977 17.5099C8.75977 16.7099 8.45977 15.94 7.91977 15.34C7.30977 14.65 6.43977 14.2599 5.50977 14.2599C4.61977 14.2599 3.78975 14.6099 3.17975 15.2399C2.98975 15.4399 2.69976 15.5199 2.43976 15.4399C2.17976 15.3599 1.96976 15.1499 1.90976 14.8799C1.80976 14.4399 1.75977 13.9599 1.75977 13.4399V7.43994C1.75977 3.99994 4.06977 1.68994 7.50977 1.68994H17.5098C20.9498 1.68994 23.2598 3.99994 23.2598 7.43994V13.4399C23.2598 15.1099 22.7098 16.5499 21.6598 17.5999C20.7798 18.4799 19.6098 19.01 18.2598 19.15V20.5699C18.2598 21.2199 17.8997 21.8099 17.3297 22.1199C17.0597 22.2499 16.7798 22.3199 16.4998 22.3199ZM10.2498 17.6799H11.4998C11.6498 17.6799 11.7898 17.7199 11.9198 17.8099L16.3698 20.78C16.4698 20.85 16.5698 20.8199 16.6198 20.7899C16.6698 20.7599 16.7598 20.6999 16.7598 20.5599V18.4299C16.7598 18.0199 17.0998 17.6799 17.5098 17.6799C18.7798 17.6799 19.8498 17.28 20.5998 16.53C21.3598 15.77 21.7598 14.6999 21.7598 13.4299V7.42993C21.7598 4.84993 20.0898 3.17993 17.5098 3.17993H7.50977C4.92977 3.17993 3.25977 4.84993 3.25977 7.42993V13.3099C3.93977 12.9399 4.70977 12.7499 5.50977 12.7499C6.86977 12.7499 8.15976 13.33 9.03976 14.33C9.81976 15.2 10.2598 16.3299 10.2598 17.4999C10.2498 17.5599 10.2498 17.6199 10.2498 17.6799Z" fill="#F4F4F4"/>
<path d="M5.5 22.25C4.32 22.25 3.19999 21.81 2.32999 21.02C1.97999 20.72 1.66999 20.35 1.42999 19.94C0.989993 19.22 0.75 18.37 0.75 17.5C0.75 16.25 1.23 15.08 2.09 14.19C2.99 13.26 4.2 12.75 5.5 12.75C6.86 12.75 8.15 13.33 9.03 14.33C9.81 15.2 10.25 16.33 10.25 17.5C10.25 17.88 10.2 18.26 10.1 18.62C10 19.07 9.80999 19.54 9.54999 19.95C8.71999 21.37 7.16 22.25 5.5 22.25ZM5.5 14.25C4.61 14.25 3.78001 14.6 3.17001 15.23C2.58001 15.84 2.25 16.64 2.25 17.5C2.25 18.09 2.41 18.67 2.72 19.17C2.88 19.45 3.08999 19.7 3.32999 19.91C3.92999 20.46 4.7 20.76 5.5 20.76C6.65 20.76 7.69 20.17 8.28 19.19C8.46 18.91 8.57999 18.6 8.64999 18.28C8.71999 18.02 8.75 17.77 8.75 17.51C8.75 16.71 8.45 15.94 7.91 15.34C7.31 14.64 6.43 14.25 5.5 14.25Z" fill="#F4F4F4"/>
<path d="M6.56992 19.2899C6.37992 19.2899 6.18992 19.22 6.03992 19.07L3.9299 16.96C3.6399 16.67 3.6399 16.19 3.9299 15.9C4.2199 15.61 4.6999 15.61 4.9899 15.9L7.09992 18.01C7.38992 18.3 7.38992 18.78 7.09992 19.07C6.94992 19.22 6.75992 19.2899 6.56992 19.2899Z" fill="#F4F4F4"/>
<path d="M4.43012 19.3199C4.24012 19.3199 4.05012 19.2499 3.90012 19.0999C3.61012 18.8099 3.61012 18.3299 3.90012 18.0399L6.01013 15.9299C6.30013 15.6399 6.78013 15.6399 7.07013 15.9299C7.36013 16.2199 7.36013 16.6999 7.07013 16.9899L4.96011 19.0999C4.81011 19.2499 4.62012 19.3199 4.43012 19.3199Z" fill="#F4F4F4"/>
<path d="M16 11.25H9C8.59 11.25 8.25 10.91 8.25 10.5C8.25 10.09 8.59 9.75 9 9.75H16C16.41 9.75 16.75 10.09 16.75 10.5C16.75 10.91 16.41 11.25 16 11.25Z" fill="#F4F4F4"/>
</svg>
