<svg width="24" height="25" viewBox="0 0 24 25" fill="none" xmlns="http://www.w3.org/2000/svg">
<path d="M12 20.5205C8.28 20.5205 5.25 17.4905 5.25 13.7705V8.77051C5.25 5.05051 8.28 2.02051 12 2.02051C15.72 2.02051 18.75 5.05051 18.75 8.77051V13.7705C18.75 17.4905 15.72 20.5205 12 20.5205ZM12 3.52051C9.11 3.52051 6.75 5.87051 6.75 8.77051V13.7705C6.75 16.6705 9.11 19.0205 12 19.0205C14.89 19.0205 17.25 16.6705 17.25 13.7705V8.77051C17.25 5.87051 14.89 3.52051 12 3.52051Z" fill="#F4F4F4"/>
<path d="M12 23.5205C6.62 23.5205 2.25 19.1505 2.25 13.7705V11.7705C2.25 11.3605 2.59 11.0205 3 11.0205C3.41 11.0205 3.75 11.3605 3.75 11.7705V13.7705C3.75 18.3205 7.45 22.0205 12 22.0205C16.55 22.0205 20.25 18.3205 20.25 13.7705V11.7705C20.25 11.3605 20.59 11.0205 21 11.0205C21.41 11.0205 21.75 11.3605 21.75 11.7705V13.7705C21.75 19.1505 17.38 23.5205 12 23.5205Z" fill="#F4F4F4"/>
<path d="M14.6099 9.00051C14.5299 9.00051 14.4399 8.99051 14.3499 8.96051C12.7399 8.38051 10.9699 8.38051 9.35988 8.96051C8.97988 9.10051 8.54988 8.90051 8.40988 8.51051C8.26988 8.12051 8.46988 7.69051 8.85988 7.55051C10.7999 6.85051 12.9299 6.85051 14.8699 7.55051C15.2599 7.69051 15.4599 8.12051 15.3199 8.51051C15.2099 8.82051 14.9199 9.00051 14.6099 9.00051Z" fill="#F4F4F4"/>
<path d="M13.6999 12.0005C13.6399 12.0005 13.5699 11.9905 13.4999 11.9705C12.4299 11.6805 11.2999 11.6805 10.2299 11.9705C9.81992 12.0805 9.41992 11.8405 9.30992 11.4405C9.19992 11.0405 9.43992 10.6305 9.83992 10.5205C11.1699 10.1605 12.5699 10.1605 13.8999 10.5205C14.2999 10.6305 14.5399 11.0405 14.4299 11.4405C14.3299 11.7905 14.0299 12.0005 13.6999 12.0005Z" fill="#F4F4F4"/>
</svg>
