<svg width="25" height="24" viewBox="0 0 25 24" fill="none" xmlns="http://www.w3.org/2000/svg">
<path d="M6.80975 20.09C6.23975 20.09 5.67976 19.94 5.15976 19.64C4.11976 19.04 3.50977 17.98 3.50977 16.78V7.21001C3.50977 6.02001 4.12976 4.95002 5.15976 4.35002C6.19976 3.75002 7.42975 3.75002 8.45975 4.35002L16.7498 9.13002C17.7798 9.73002 18.3997 10.8 18.3997 11.99C18.3997 13.18 17.7798 14.25 16.7498 14.85L8.45975 19.63C7.93975 19.94 7.37975 20.09 6.80975 20.09ZM6.80975 5.41002C6.49975 5.41002 6.18976 5.49001 5.90976 5.65001C5.34976 5.98001 5.00977 6.56001 5.00977 7.21001V16.78C5.00977 17.43 5.34976 18.01 5.90976 18.34C6.46976 18.66 7.14975 18.67 7.70975 18.34L15.9998 13.56C16.5598 13.23 16.8997 12.65 16.8997 12C16.8997 11.35 16.5598 10.77 15.9998 10.44L7.70975 5.66002C7.42975 5.50002 7.11975 5.41002 6.80975 5.41002Z" fill="#F4F4F4"/>
<path d="M20.7402 18.9301C20.3302 18.9301 19.9902 18.5901 19.9902 18.1801V5.82007C19.9902 5.41007 20.3302 5.07007 20.7402 5.07007C21.1502 5.07007 21.4902 5.41007 21.4902 5.82007V18.1801C21.4902 18.5901 21.1602 18.9301 20.7402 18.9301Z" fill="#F4F4F4"/>
</svg>
