<svg width="25" height="24" viewBox="0 0 25 24" fill="none" xmlns="http://www.w3.org/2000/svg">
<path d="M9.14 21.75H5.51C3.65 21.75 2.75 20.89 2.75 19.11V4.89C2.75 3.11 3.65 2.25 5.51 2.25H9.14C11 2.25 11.9 3.11 11.9 4.89V19.11C11.9 20.89 11 21.75 9.14 21.75ZM5.51 3.75C4.43 3.75 4.25 4.02 4.25 4.89V19.11C4.25 19.98 4.42 20.25 5.51 20.25H9.14C10.22 20.25 10.4 19.98 10.4 19.11V4.89C10.4 4.02 10.23 3.75 9.14 3.75H5.51Z" fill="#F4F4F4"/>
<path d="M19.4901 21.75H15.8601C14.0001 21.75 13.1001 20.89 13.1001 19.11V4.89C13.1001 3.11 14.0001 2.25 15.8601 2.25H19.4901C21.3501 2.25 22.2501 3.11 22.2501 4.89V19.11C22.2501 20.89 21.3501 21.75 19.4901 21.75ZM15.8601 3.75C14.7801 3.75 14.6001 4.02 14.6001 4.89V19.11C14.6001 19.98 14.7701 20.25 15.8601 20.25H19.4901C20.5701 20.25 20.7501 19.98 20.7501 19.11V4.89C20.7501 4.02 20.5801 3.75 19.4901 3.75H15.8601Z" fill="#F4F4F4"/>
</svg>
