<svg width="17" height="17" viewBox="0 0 17 17" fill="none" xmlns="http://www.w3.org/2000/svg">
<path d="M14.6887 6.28765L10.7215 5.71109L8.9481 2.11578C8.89966 2.01734 8.81998 1.93765 8.72154 1.88921C8.47466 1.76734 8.17466 1.8689 8.05123 2.11578L6.27779 5.71109L2.3106 6.28765C2.20123 6.30328 2.10123 6.35484 2.02466 6.43296C1.9321 6.5281 1.8811 6.65609 1.88286 6.78881C1.88461 6.92153 1.93899 7.04813 2.03404 7.14078L4.90435 9.93921L4.22623 13.8908C4.21032 13.9827 4.2205 14.0772 4.25559 14.1637C4.29068 14.2501 4.34929 14.325 4.42477 14.3798C4.50025 14.4346 4.58958 14.4672 4.68263 14.4738C4.77568 14.4805 4.86873 14.4609 4.95123 14.4173L8.49966 12.5517L12.0481 14.4173C12.145 14.4689 12.2575 14.4861 12.3653 14.4673C12.6372 14.4205 12.82 14.1627 12.7731 13.8908L12.095 9.93921L14.9653 7.14078C15.0434 7.06422 15.095 6.96421 15.1106 6.85484C15.1528 6.5814 14.9622 6.32828 14.6887 6.28765Z" fill="#FEA250"/>
</svg>
