<svg width="25" height="24" viewBox="0 0 25 24" fill="none" xmlns="http://www.w3.org/2000/svg">
<path d="M12.5001 22.75C7.30008 22.75 3.08008 18.52 3.08008 13.33C3.08008 11.46 3.63008 9.65 4.67008 8.09C4.90008 7.75 5.37008 7.65 5.71008 7.88C6.05008 8.11 6.15008 8.58 5.92008 8.92C5.05008 10.22 4.59008 11.75 4.59008 13.32C4.59008 17.69 8.14008 21.24 12.5101 21.24C16.8801 21.24 20.4301 17.69 20.4301 13.32C20.4301 8.95 16.8701 5.4 12.5001 5.4C11.5801 5.4 10.6801 5.53 9.83008 5.79C9.43008 5.91 9.01008 5.69 8.89008 5.29C8.77008 4.89 8.99008 4.47 9.39008 4.35C10.3901 4.05 11.4301 3.89 12.5001 3.89C17.7001 3.89 21.9201 8.12 21.9201 13.31C21.9201 18.5 17.7001 22.75 12.5001 22.75Z" fill="#F4F4F4"/>
<path d="M8.36987 6.07C8.19987 6.07 8.01987 6.01 7.87987 5.89C7.55987 5.61 7.52987 5.14 7.79987 4.83L10.6899 1.51C10.9599 1.2 11.4399 1.16 11.7499 1.44C12.0599 1.71 12.0899 2.19 11.8199 2.5L8.92987 5.81C8.77987 5.98 8.56987 6.07 8.36987 6.07Z" fill="#F4F4F4"/>
<path d="M11.7401 8.53C11.5901 8.53 11.4301 8.48 11.3001 8.39L7.92008 5.92C7.59008 5.68 7.52008 5.21 7.76008 4.88C8.00008 4.54 8.47008 4.47 8.81008 4.71L12.1801 7.17C12.5101 7.41 12.5901 7.88 12.3401 8.22C12.2001 8.43 11.9701 8.53 11.7401 8.53Z" fill="#F4F4F4"/>
</svg>
