<svg width="16" height="16" viewBox="0 0 16 16" fill="none" xmlns="http://www.w3.org/2000/svg">
<g clip-path="url(#clip0_453_98)">
<path d="M2.04213 8.7152C1.90943 8.64869 1.79784 8.54656 1.71986 8.42026C1.64189 8.29395 1.60059 8.14844 1.60059 8C1.60059 7.85156 1.64189 7.70604 1.71986 7.57974C1.79784 7.45343 1.90943 7.35131 2.04213 7.2848L13.2421 1.6848C13.381 1.61531 13.5371 1.58774 13.6914 1.60546C13.8456 1.62317 13.9914 1.6854 14.1109 1.78455C14.2304 1.8837 14.3185 2.01549 14.3644 2.16384C14.4103 2.31219 14.412 2.47069 14.3693 2.62L13.2261 6.62C13.1783 6.78718 13.0773 6.93423 12.9385 7.03888C12.7996 7.14353 12.6304 7.20009 12.4565 7.2L8.79973 7.2C8.58756 7.2 8.38408 7.28428 8.23405 7.43431C8.08402 7.58434 7.99973 7.78782 7.99973 8C7.99973 8.21217 8.08402 8.41565 8.23405 8.56568C8.38408 8.71571 8.58756 8.8 8.79973 8.8H12.4565C12.6304 8.7999 12.7996 8.85646 12.9385 8.96111C13.0773 9.06577 13.1783 9.21282 13.2261 9.38L14.3685 13.38C14.4113 13.5293 14.4097 13.6877 14.3639 13.8361C14.3181 13.9845 14.2301 14.1163 14.1107 14.2155C13.9913 14.3147 13.8456 14.3771 13.6914 14.3949C13.5371 14.4128 13.381 14.3853 13.2421 14.316L2.04213 8.716V8.7152Z" fill="#171717"/>
</g>
<defs>
<clipPath id="clip0_453_98">
<rect width="16" height="16" fill="white" transform="matrix(0 1 1 0 0 0)"/>
</clipPath>
</defs>
</svg>
