<svg width="37" height="43" viewBox="0 0 37 43" fill="none" xmlns="http://www.w3.org/2000/svg">
<path d="M22.2995 1.88532C22.1785 0.87461 20.84 0.592663 20.4185 1.48911L14.4008 14.2878C14.2681 14.5699 14.0092 14.765 13.7025 14.8141L0.817866 16.8761C-0.0775428 17.0194 -0.267617 18.2257 0.526562 18.7249L11.9545 25.9079C12.2266 26.0789 12.4093 26.3671 12.4474 26.6851L14.1749 41.1151C14.2959 42.1259 15.6344 42.4078 16.0559 41.5114L22.0736 28.7127C22.2063 28.4306 22.4652 28.2354 22.7719 28.1864L35.6565 26.1244C36.5519 25.9811 36.742 24.7747 35.9478 24.2756L24.5199 17.0926C24.2478 16.9216 24.0651 16.6334 24.027 16.3154L22.2995 1.88532Z" fill="#364C84"/>
</svg>
