<svg width="24" height="25" viewBox="0 0 24 25" fill="none" xmlns="http://www.w3.org/2000/svg">
<path d="M15 23.5205H9C3.57 23.5205 1.25 21.2005 1.25 15.7705V9.77051C1.25 4.34051 3.57 2.02051 9 2.02051H15C20.43 2.02051 22.75 4.34051 22.75 9.77051V15.7705C22.75 21.2005 20.43 23.5205 15 23.5205ZM9 3.52051C4.39 3.52051 2.75 5.16051 2.75 9.77051V15.7705C2.75 20.3805 4.39 22.0205 9 22.0205H15C19.61 22.0205 21.25 20.3805 21.25 15.7705V9.77051C21.25 5.16051 19.61 3.52051 15 3.52051H9Z" fill="#F4F4F4"/>
<path d="M10.7598 17.1406C10.3398 17.1406 9.94984 17.0406 9.59984 16.8406C8.79984 16.3806 8.33984 15.4406 8.33984 14.2506V11.2906C8.33984 10.1106 8.79984 9.16056 9.59984 8.70056C10.3998 8.24056 11.4398 8.31056 12.4698 8.91056L15.0398 10.3906C16.0598 10.9806 16.6498 11.8506 16.6498 12.7706C16.6498 13.6906 16.0598 14.5606 15.0398 15.1506L12.4698 16.6306C11.8898 16.9706 11.2998 17.1406 10.7598 17.1406ZM10.7698 9.90056C10.6098 9.90056 10.4698 9.93056 10.3598 10.0006C10.0398 10.1906 9.84984 10.6606 9.84984 11.2906V14.2506C9.84984 14.8806 10.0298 15.3506 10.3598 15.5406C10.6798 15.7306 11.1798 15.6506 11.7298 15.3306L14.2998 13.8506C14.8498 13.5306 15.1598 13.1406 15.1598 12.7706C15.1598 12.4006 14.8498 12.0006 14.2998 11.6906L11.7298 10.2106C11.3698 10.0006 11.0398 9.90056 10.7698 9.90056Z" fill="#F4F4F4"/>
</svg>
