<svg width="20" height="20" viewBox="0 0 20 20" fill="none" xmlns="http://www.w3.org/2000/svg">
<path d="M10.7337 17.3833H5.67533C2.71699 17.3833 1.66699 15.3083 1.66699 13.375V6.625C1.66699 3.74167 2.79199 2.61667 5.67533 2.61667H10.7337C13.617 2.61667 14.742 3.74167 14.742 6.625V13.375C14.742 16.2583 13.617 17.3833 10.7337 17.3833ZM5.67533 3.88334C3.50033 3.88334 2.93366 4.45 2.93366 6.625V13.375C2.93366 14.4 3.29199 16.1167 5.67533 16.1167H10.7337C12.9087 16.1167 13.4753 15.55 13.4753 13.375V6.625C13.4753 4.45 12.9087 3.88334 10.7337 3.88334H5.67533Z" fill="#525252"/>
<path d="M17.3167 15.0917C16.9584 15.0917 16.5001 14.975 15.9751 14.6083L13.7501 13.05C13.5834 12.9333 13.4834 12.7417 13.4834 12.5333V7.46667C13.4834 7.25834 13.5834 7.06667 13.7501 6.95001L15.9751 5.39167C16.9667 4.70001 17.6917 4.90001 18.0334 5.07501C18.3751 5.25834 18.9584 5.73334 18.9584 6.94167V13.05C18.9584 14.2583 18.3751 14.7417 18.0334 14.9167C17.8751 15.0083 17.6251 15.0917 17.3167 15.0917ZM14.7417 12.2L16.7001 13.5667C17.0751 13.825 17.3417 13.85 17.4501 13.7917C17.5667 13.7333 17.6917 13.5 17.6917 13.05V6.95001C17.6917 6.49167 17.5584 6.26667 17.4501 6.20834C17.3417 6.15001 17.0751 6.17501 16.7001 6.43334L14.7417 7.80001V12.2Z" fill="#525252"/>
<path d="M9.58301 9.79166C8.54967 9.79166 7.70801 8.94999 7.70801 7.91666C7.70801 6.88332 8.54967 6.04166 9.58301 6.04166C10.6163 6.04166 11.458 6.88332 11.458 7.91666C11.458 8.94999 10.6163 9.79166 9.58301 9.79166ZM9.58301 7.29166C9.24134 7.29166 8.95801 7.57499 8.95801 7.91666C8.95801 8.25832 9.24134 8.54166 9.58301 8.54166C9.92467 8.54166 10.208 8.25832 10.208 7.91666C10.208 7.57499 9.92467 7.29166 9.58301 7.29166Z" fill="#525252"/>
</svg>
