<svg width="555" height="154" viewBox="0 0 555 154" fill="none" xmlns="http://www.w3.org/2000/svg">
<path d="M545.618 135.254C545.271 135.254 544.977 135.15 544.734 134.942C544.526 134.699 544.422 134.404 544.422 134.058V97.1897C544.422 96.843 544.526 96.5657 544.734 96.3577C544.977 96.115 545.271 95.9937 545.618 95.9937H550.246C550.627 95.9937 550.922 96.115 551.13 96.3577C551.338 96.5657 551.442 96.843 551.442 97.1897V134.058C551.442 134.404 551.338 134.699 551.13 134.942C550.922 135.15 550.627 135.254 550.246 135.254H545.618Z" fill="#F4F4F4"/>
<path d="M523.285 135.306C522.765 135.306 522.505 135.046 522.505 134.526V128.13C522.505 127.09 523.025 126.57 524.065 126.57C525.14 126.57 526.006 126.414 526.665 126.102C527.324 125.79 527.792 125.252 528.069 124.49C528.346 123.692 528.485 122.583 528.485 121.162V97.1897C528.485 96.843 528.589 96.5657 528.797 96.3577C529.04 96.115 529.334 95.9937 529.681 95.9937H534.309C534.69 95.9937 534.985 96.115 535.193 96.3577C535.401 96.5657 535.505 96.843 535.505 97.1897V121.058C535.505 123.38 535.314 125.443 534.933 127.246C534.586 129.048 533.962 130.556 533.061 131.77C532.16 132.983 530.911 133.884 529.317 134.474C527.757 135.063 525.746 135.34 523.285 135.306Z" fill="#F4F4F4"/>
<path d="M484.133 135.306C483.613 135.306 483.353 135.046 483.353 134.526V128.13C483.353 127.09 483.873 126.57 484.913 126.57H495.521C498.259 126.57 500.617 126.31 502.593 125.79C504.603 125.235 506.614 124.282 508.625 122.93L513.513 119.706L516.737 122.098L510.237 128.13C509.093 129.204 507.671 130.296 505.973 131.406C504.309 132.515 502.35 133.451 500.096 134.214C497.878 134.942 495.313 135.306 492.401 135.306H484.133ZM521.781 135.306C519.805 135.306 518.037 135.011 516.477 134.422C514.917 133.832 513.617 132.844 512.577 131.458C511.537 130.036 510.757 128.095 510.237 125.634L514.552 121.526C514.552 122.704 514.639 123.64 514.812 124.334C515.021 124.992 515.333 125.495 515.749 125.842C516.165 126.154 516.667 126.362 517.257 126.466C517.881 126.535 518.626 126.57 519.492 126.57H524.069C524.346 126.57 524.537 126.656 524.641 126.83C524.779 127.003 524.849 127.211 524.849 127.454V133.85C524.849 134.335 524.71 134.699 524.432 134.942C524.155 135.184 523.774 135.306 523.289 135.306H521.781ZM514.917 123.294L514.708 123.19C512.94 123.19 511.415 123.051 510.133 122.774C508.85 122.462 507.706 122.08 506.701 121.63C505.73 121.179 504.794 120.728 503.893 120.278C502.991 119.827 502.038 119.446 501.033 119.134C500.062 118.822 498.918 118.666 497.601 118.666C496.734 118.666 495.954 118.804 495.26 119.082C494.602 119.359 494.064 119.775 493.648 120.33C493.267 120.78 492.938 121.092 492.661 121.266C492.418 121.439 491.985 121.526 491.361 121.526H488.5C487.426 121.526 486.888 121.075 486.888 120.174C486.888 119.03 487.149 117.92 487.669 116.846C488.223 115.771 488.986 114.818 489.957 113.986C490.927 113.119 492.071 112.443 493.388 111.958C494.706 111.472 496.145 111.23 497.705 111.23C499.299 111.23 500.703 111.386 501.917 111.698C503.165 112.01 504.326 112.408 505.401 112.894C506.475 113.379 507.55 113.882 508.625 114.402C509.699 114.887 510.878 115.286 512.161 115.598C513.443 115.91 514.934 116.066 516.633 116.066H518.765C519.319 116.066 519.666 116.187 519.805 116.43C519.978 116.672 520.065 117.054 520.065 117.574V121.838C520.065 122.288 519.926 122.652 519.648 122.93C519.406 123.172 519.042 123.294 518.557 123.294H514.917Z" fill="#F4F4F4"/>
<path d="M455.292 135.306C454.668 135.306 454.356 134.976 454.356 134.318V127.766C454.356 127.384 454.478 127.09 454.72 126.882C454.963 126.674 455.258 126.57 455.604 126.57C456.575 126.57 457.511 126.57 458.412 126.57C459.314 126.535 460.128 126.5 460.856 126.466C461.619 126.396 462.191 126.327 462.572 126.258C462.018 125.634 461.48 124.958 460.96 124.23C460.475 123.502 460.094 122.722 459.816 121.89C459.539 121.058 459.383 120.156 459.348 119.186C459.348 117.314 459.816 115.615 460.752 114.09C461.688 112.53 462.988 111.299 464.652 110.398C466.316 109.462 468.206 108.994 470.32 108.994C472.366 108.994 474.151 109.462 475.676 110.398C477.202 111.334 478.38 112.582 479.212 114.142C480.079 115.667 480.512 117.331 480.512 119.134C480.512 120.486 480.235 121.751 479.68 122.93C479.16 124.074 478.363 125.183 477.288 126.258C478.016 126.362 478.658 126.431 479.212 126.466C479.802 126.5 480.512 126.535 481.344 126.57C482.211 126.57 483.338 126.57 484.724 126.57C485.002 126.57 485.227 126.656 485.4 126.83C485.608 127.003 485.712 127.228 485.712 127.506V133.486C485.712 134.699 485.071 135.306 483.788 135.306C481.743 135.306 480.062 135.271 478.744 135.202C477.427 135.132 476.283 135.011 475.312 134.838C474.376 134.664 473.475 134.404 472.608 134.058C471.776 133.676 470.806 133.208 469.696 132.654C468.864 133.174 468.067 133.624 467.304 134.006C466.576 134.352 465.71 134.63 464.704 134.838C463.734 135.011 462.503 135.132 461.012 135.202C459.522 135.271 457.615 135.306 455.292 135.306ZM470.112 124.594C471.36 123.866 472.296 123.086 472.92 122.254C473.579 121.422 473.908 120.59 473.908 119.758C473.908 118.648 473.562 117.747 472.868 117.054C472.175 116.36 471.274 116.014 470.164 116.014C469.055 116.014 468.119 116.343 467.356 117.002C466.594 117.626 466.212 118.475 466.212 119.55C466.212 120.59 466.542 121.508 467.2 122.306C467.894 123.068 468.864 123.831 470.112 124.594ZM467.2 104.47C466.992 104.678 466.715 104.782 466.368 104.782C466.056 104.782 465.779 104.66 465.536 104.418L462.936 101.818C462.728 101.575 462.607 101.298 462.572 100.986C462.572 100.674 462.694 100.379 462.936 100.102L465.536 97.5016C465.779 97.259 466.056 97.1376 466.368 97.1376C466.68 97.1376 466.958 97.259 467.2 97.5016L469.8 100.102C470.043 100.379 470.164 100.691 470.164 101.038C470.199 101.35 470.095 101.627 469.852 101.87L467.2 104.47ZM475.208 104.47C474.966 104.712 474.688 104.816 474.376 104.782C474.064 104.747 473.787 104.626 473.544 104.418L470.892 101.818C470.684 101.575 470.58 101.298 470.58 100.986C470.58 100.639 470.684 100.344 470.892 100.102L473.544 97.5016C473.787 97.259 474.047 97.1376 474.324 97.1376C474.636 97.1376 474.914 97.259 475.156 97.5016L477.756 100.102C478.034 100.379 478.172 100.674 478.172 100.986C478.207 101.298 478.086 101.592 477.808 101.87L475.208 104.47Z" fill="#F4F4F4"/>
<path d="M437.515 135.306C436.995 135.306 436.735 135.046 436.735 134.526V128.13C436.735 127.09 437.255 126.57 438.295 126.57C440.063 126.57 441.277 126.188 441.935 125.426C442.594 124.663 442.923 123.346 442.923 121.474V116.898C442.923 115.927 443.374 115.442 444.275 115.442H448.903C449.805 115.442 450.255 115.927 450.255 116.898V121.474C450.255 122.652 450.411 123.623 450.723 124.386C451.07 125.148 451.642 125.703 452.439 126.05C453.271 126.396 454.433 126.57 455.923 126.57C456.443 126.57 456.703 126.83 456.703 127.35V133.746C456.703 134.786 456.183 135.306 455.143 135.306C452.543 135.306 450.377 134.976 448.643 134.318C446.91 133.659 445.679 132.446 444.951 130.678C444.397 132.342 443.443 133.538 442.091 134.266C440.774 134.959 439.249 135.306 437.515 135.306ZM443.911 145.498C443.703 145.706 443.443 145.792 443.131 145.758C442.819 145.758 442.542 145.654 442.299 145.446L439.803 142.95C439.595 142.707 439.474 142.43 439.439 142.118C439.439 141.806 439.561 141.546 439.803 141.338L442.299 138.842C442.542 138.599 442.802 138.478 443.079 138.478C443.391 138.478 443.669 138.599 443.911 138.842L446.355 141.338C446.598 141.546 446.719 141.806 446.719 142.118C446.754 142.464 446.65 142.759 446.407 143.002L443.911 145.498ZM451.139 145.498C450.931 145.706 450.671 145.792 450.359 145.758C450.082 145.758 449.822 145.654 449.579 145.446L447.031 142.95C446.823 142.707 446.702 142.43 446.667 142.118C446.667 141.806 446.789 141.546 447.031 141.338L449.579 138.842C449.822 138.599 450.082 138.478 450.359 138.478C450.637 138.478 450.879 138.599 451.087 138.842L453.583 141.338C453.826 141.546 453.947 141.806 453.947 142.118C453.982 142.464 453.878 142.759 453.635 143.002L451.139 145.498Z" fill="#F4F4F4"/>
<path d="M408.675 135.306C408.051 135.306 407.739 134.976 407.739 134.318V127.766C407.739 127.384 407.861 127.09 408.103 126.882C408.346 126.674 408.641 126.57 408.987 126.57C409.958 126.57 410.894 126.57 411.795 126.57C412.697 126.535 413.511 126.5 414.239 126.466C415.002 126.396 415.574 126.327 415.955 126.258C415.401 125.634 414.863 124.958 414.343 124.23C413.858 123.502 413.477 122.722 413.199 121.89C412.922 121.058 412.766 120.156 412.731 119.186C412.731 117.314 413.199 115.615 414.135 114.09C415.071 112.53 416.371 111.299 418.035 110.398C419.699 109.462 421.589 108.994 423.703 108.994C425.749 108.994 427.534 109.462 429.059 110.398C430.585 111.334 431.763 112.582 432.595 114.142C433.462 115.667 433.895 117.331 433.895 119.134C433.895 120.486 433.618 121.751 433.063 122.93C432.543 124.074 431.746 125.183 430.671 126.258C431.399 126.362 432.041 126.431 432.595 126.466C433.185 126.5 433.895 126.535 434.727 126.57C435.594 126.57 436.721 126.57 438.107 126.57C438.385 126.57 438.61 126.656 438.783 126.83C438.991 127.003 439.095 127.228 439.095 127.506V133.486C439.095 134.699 438.454 135.306 437.171 135.306C435.126 135.306 433.445 135.271 432.127 135.202C430.81 135.132 429.666 135.011 428.695 134.838C427.759 134.664 426.858 134.404 425.991 134.058C425.159 133.676 424.189 133.208 423.079 132.654C422.247 133.174 421.45 133.624 420.687 134.006C419.959 134.352 419.093 134.63 418.087 134.838C417.117 135.011 415.886 135.132 414.395 135.202C412.905 135.271 410.998 135.306 408.675 135.306ZM423.495 124.594C424.743 123.866 425.679 123.086 426.303 122.254C426.962 121.422 427.291 120.59 427.291 119.758C427.291 118.648 426.945 117.747 426.251 117.054C425.558 116.36 424.657 116.014 423.547 116.014C422.438 116.014 421.502 116.343 420.739 117.002C419.977 117.626 419.595 118.475 419.595 119.55C419.595 120.59 419.925 121.508 420.583 122.306C421.277 123.068 422.247 123.831 423.495 124.594ZM420.583 104.47C420.375 104.678 420.098 104.782 419.751 104.782C419.439 104.782 419.162 104.66 418.919 104.418L416.319 101.818C416.111 101.575 415.99 101.298 415.955 100.986C415.955 100.674 416.077 100.379 416.319 100.102L418.919 97.5016C419.162 97.259 419.439 97.1376 419.751 97.1376C420.063 97.1376 420.341 97.259 420.583 97.5016L423.183 100.102C423.426 100.379 423.547 100.691 423.547 101.038C423.582 101.35 423.478 101.627 423.235 101.87L420.583 104.47ZM428.591 104.47C428.349 104.712 428.071 104.816 427.759 104.782C427.447 104.747 427.17 104.626 426.927 104.418L424.275 101.818C424.067 101.575 423.963 101.298 423.963 100.986C423.963 100.639 424.067 100.344 424.275 100.102L426.927 97.5016C427.17 97.259 427.43 97.1376 427.707 97.1376C428.019 97.1376 428.297 97.259 428.539 97.5016L431.139 100.102C431.417 100.379 431.555 100.674 431.555 100.986C431.59 101.298 431.469 101.592 431.191 101.87L428.591 104.47Z" fill="#F4F4F4"/>
<path d="M390.898 135.306C390.378 135.306 390.118 135.046 390.118 134.526V128.13C390.118 127.09 390.638 126.57 391.678 126.57C393.446 126.57 394.66 126.188 395.318 125.426C395.977 124.663 396.306 123.346 396.306 121.474V116.898C396.306 115.927 396.757 115.442 397.658 115.442H402.286C403.187 115.442 403.638 115.927 403.638 116.898V121.474C403.638 122.652 403.794 123.623 404.106 124.386C404.453 125.148 405.025 125.703 405.822 126.05C406.654 126.396 407.816 126.57 409.306 126.57C409.826 126.57 410.086 126.83 410.086 127.35V133.746C410.086 134.786 409.566 135.306 408.526 135.306C405.926 135.306 403.76 134.976 402.026 134.318C400.293 133.659 399.062 132.446 398.334 130.678C397.78 132.342 396.826 133.538 395.474 134.266C394.157 134.959 392.631 135.306 390.898 135.306ZM397.294 145.498C397.086 145.706 396.826 145.792 396.514 145.758C396.202 145.758 395.925 145.654 395.682 145.446L393.186 142.95C392.978 142.707 392.857 142.43 392.822 142.118C392.822 141.806 392.944 141.546 393.186 141.338L395.682 138.842C395.925 138.599 396.185 138.478 396.462 138.478C396.774 138.478 397.051 138.599 397.294 138.842L399.738 141.338C399.981 141.546 400.102 141.806 400.102 142.118C400.137 142.464 400.033 142.759 399.79 143.002L397.294 145.498ZM404.522 145.498C404.314 145.706 404.054 145.792 403.742 145.758C403.465 145.758 403.205 145.654 402.962 145.446L400.414 142.95C400.206 142.707 400.085 142.43 400.05 142.118C400.05 141.806 400.172 141.546 400.414 141.338L402.962 138.842C403.205 138.599 403.465 138.478 403.742 138.478C404.02 138.478 404.262 138.599 404.47 138.842L406.966 141.338C407.209 141.546 407.33 141.806 407.33 142.118C407.365 142.464 407.261 142.759 407.018 143.002L404.522 145.498Z" fill="#F4F4F4"/>
<path d="M389.332 135.306C386.628 135.306 384.479 134.682 382.884 133.434C381.324 132.186 380.284 130.227 379.764 127.558C378.898 128.84 377.788 129.828 376.436 130.522C375.084 131.18 373.507 131.51 371.704 131.51C368.862 131.51 366.712 130.782 365.256 129.326C363.8 127.835 363.072 125.842 363.072 123.346C363.072 121.855 363.402 120.416 364.06 119.03C364.719 117.643 365.811 116.343 367.336 115.13C368.896 113.916 370.959 112.842 373.524 111.906L379.088 109.878V107.538C379.088 107.122 379.192 106.81 379.4 106.602C379.643 106.359 379.972 106.238 380.388 106.238H385.016C385.363 106.238 385.623 106.359 385.796 106.602C386.004 106.81 386.108 107.087 386.108 107.434V121.786C386.108 123.727 386.403 125.01 386.992 125.634C387.582 126.258 388.691 126.57 390.32 126.57H391.672C391.915 126.57 392.106 126.656 392.244 126.83C392.383 127.003 392.452 127.194 392.452 127.402V133.85C392.452 134.82 391.932 135.306 390.892 135.306H389.332ZM373.888 124.438C374.894 124.438 375.778 124.23 376.54 123.814C377.338 123.363 377.962 122.756 378.412 121.994C378.863 121.231 379.088 120.364 379.088 119.394V116.274L374.98 117.574C373.524 118.059 372.415 118.648 371.652 119.342C370.89 120 370.508 120.763 370.508 121.63C370.508 122.496 370.803 123.19 371.392 123.71C372.016 124.195 372.848 124.438 373.888 124.438ZM379.452 102.078C379.244 102.286 378.967 102.39 378.62 102.39C378.308 102.39 378.031 102.268 377.788 102.026L375.188 99.4257C374.98 99.183 374.859 98.9057 374.824 98.5937C374.824 98.2817 374.946 97.987 375.188 97.7097L377.788 95.1096C378.031 94.867 378.308 94.7457 378.62 94.7457C378.932 94.7457 379.21 94.867 379.452 95.1096L382.052 97.7097C382.295 97.987 382.416 98.299 382.416 98.6457C382.451 98.9577 382.347 99.235 382.104 99.4777L379.452 102.078ZM387.46 102.078C387.218 102.32 386.94 102.424 386.628 102.39C386.316 102.355 386.039 102.234 385.796 102.026L383.144 99.4257C382.936 99.183 382.832 98.9057 382.832 98.5937C382.832 98.247 382.936 97.9523 383.144 97.7097L385.796 95.1096C386.039 94.867 386.299 94.7457 386.576 94.7457C386.888 94.7457 387.166 94.867 387.408 95.1096L390.008 97.7097C390.286 97.987 390.424 98.2817 390.424 98.5937C390.459 98.9057 390.338 99.2003 390.06 99.4777L387.46 102.078Z" fill="#F4F4F4"/>
<path d="M350.488 123.502C350.107 123.502 349.795 123.38 349.552 123.138C349.31 122.86 349.188 122.548 349.188 122.202V99.8937C349.188 99.5123 349.31 99.2003 349.552 98.9577C349.795 98.715 350.107 98.5937 350.488 98.5937H356.468C356.815 98.5937 357.11 98.715 357.352 98.9577C357.63 99.2003 357.768 99.5123 357.768 99.8937V122.202C357.768 122.548 357.63 122.86 357.352 123.138C357.11 123.38 356.815 123.502 356.468 123.502H350.488ZM350.28 134.994C349.899 134.994 349.587 134.872 349.344 134.63C349.102 134.387 348.98 134.075 348.98 133.694V127.298C348.98 126.916 349.102 126.604 349.344 126.362C349.587 126.084 349.899 125.946 350.28 125.946H356.676C357.023 125.946 357.318 126.084 357.56 126.362C357.838 126.604 357.976 126.916 357.976 127.298V133.694C357.976 134.075 357.838 134.387 357.56 134.63C357.318 134.872 357.023 134.994 356.676 134.994H350.28Z" fill="#F4F4F4"/>
<path d="M319.806 135.306C319.528 135.306 319.32 135.219 319.182 135.046C319.043 134.872 318.974 134.664 318.974 134.422V127.922C318.974 127.436 319.112 127.09 319.39 126.882C319.667 126.674 320.048 126.57 320.534 126.57H320.898C322.18 126.57 323.116 126.24 323.706 125.582C324.295 124.888 324.59 123.814 324.59 122.358C324.59 121.942 324.555 121.508 324.486 121.058C324.451 120.607 324.382 120.139 324.278 119.654L323.394 115.598C323.29 114.974 323.342 114.523 323.55 114.246C323.792 113.968 324.174 113.778 324.694 113.674L328.646 112.79C329.755 112.547 330.431 113.015 330.674 114.194L331.766 119.602C331.939 120.364 332.06 121.179 332.13 122.046C332.234 122.912 332.286 123.658 332.286 124.282C332.286 127.575 331.454 130.244 329.79 132.29C328.126 134.3 325.664 135.306 322.406 135.306H319.806ZM325.63 145.81C325.387 146.018 325.092 146.104 324.746 146.07C324.434 146.07 324.156 145.966 323.914 145.758L321.314 143.158C321.106 142.915 321.002 142.638 321.002 142.326C321.002 142.014 321.106 141.719 321.314 141.442L323.914 138.842C324.156 138.599 324.434 138.478 324.746 138.478C325.058 138.478 325.335 138.599 325.578 138.842L328.126 141.442C328.403 141.719 328.542 142.014 328.542 142.326C328.576 142.638 328.472 142.932 328.23 143.21L325.63 145.81Z" fill="#F4F4F4"/>
<path d="M302.843 135.306C302.323 135.306 302.063 135.046 302.063 134.526V128.13C302.063 127.09 302.583 126.57 303.623 126.57C305.357 126.57 306.518 126.188 307.107 125.426C307.731 124.663 308.043 123.328 308.043 121.422V97.4496C308.043 96.479 308.494 95.9937 309.395 95.9937H313.711C314.613 95.9937 315.063 96.479 315.063 97.4496V121.422C315.063 122.704 315.202 123.727 315.479 124.49C315.791 125.218 316.346 125.755 317.143 126.102C317.941 126.414 319.067 126.57 320.523 126.57C321.043 126.57 321.303 126.83 321.303 127.35V133.746C321.303 134.786 320.784 135.306 319.743 135.306C317.976 135.306 316.311 134.976 314.751 134.318C313.226 133.624 311.995 132.411 311.059 130.678C310.193 132.515 309.032 133.746 307.576 134.37C306.154 134.994 304.577 135.306 302.843 135.306Z" fill="#F4F4F4"/>
<path d="M292.952 147.942C290.976 147.942 289.086 147.595 287.284 146.902C285.481 146.243 283.869 145.203 282.448 143.782C281.061 142.36 279.969 140.523 279.172 138.27C278.374 136.051 277.976 133.364 277.976 130.21C277.976 127.852 278.27 125.495 278.86 123.138C279.449 120.746 280.316 118.475 281.46 116.326C282.604 114.142 283.956 112.218 285.516 110.554C285.828 110.207 286.122 109.964 286.4 109.826C286.677 109.652 287.024 109.566 287.44 109.566H291.704C292.154 109.566 292.518 109.652 292.796 109.826C293.108 109.964 293.42 110.172 293.732 110.45C295.361 111.871 296.644 113.327 297.58 114.818C298.55 116.308 299.036 117.955 299.036 119.758C299.036 121.387 298.585 122.912 297.684 124.334C296.817 125.755 295.517 126.847 293.784 127.61L292.172 126.674C293.489 126.674 294.754 126.674 295.968 126.674C297.216 126.639 298.446 126.622 299.66 126.622C300.908 126.587 302.19 126.57 303.508 126.57C303.82 126.57 304.045 126.656 304.184 126.83C304.322 127.003 304.392 127.263 304.392 127.61V133.642C304.392 134.127 304.236 134.526 303.924 134.838C303.646 135.15 303.213 135.306 302.624 135.306H299.712L298.88 133.902C300.162 134.699 301.064 135.583 301.584 136.554C302.104 137.559 302.364 138.599 302.364 139.674C302.364 141.13 302 142.482 301.272 143.73C300.578 145.012 299.538 146.035 298.152 146.798C296.765 147.56 295.032 147.942 292.952 147.942ZM275.168 135.306C274.648 135.306 274.388 134.994 274.388 134.37V128.182C274.388 127.662 274.526 127.263 274.804 126.986C275.081 126.708 275.48 126.57 276 126.57H279.744V135.306H275.168ZM292.64 141.026C294.026 141.026 295.014 140.748 295.604 140.194C296.228 139.639 296.54 138.98 296.54 138.218C296.54 136.97 295.95 136.086 294.772 135.566C293.628 135.046 292.12 134.786 290.248 134.786H282.916V126.778H284.84C286.296 126.778 287.596 126.622 288.74 126.31C289.918 125.998 290.854 125.512 291.548 124.854C292.241 124.16 292.588 123.259 292.588 122.15C292.588 120.936 292.206 119.827 291.444 118.822C290.681 117.782 289.658 116.776 288.376 115.806H289.988C289.19 116.672 288.376 117.764 287.544 119.082C286.712 120.399 286.018 121.855 285.464 123.45C284.909 125.044 284.632 126.726 284.632 128.494C284.632 131.475 285.03 133.884 285.828 135.722C286.66 137.559 287.682 138.894 288.896 139.726C290.144 140.592 291.392 141.026 292.64 141.026Z" fill="#F4F4F4"/>
<path d="M236.015 135.306C235.495 135.306 235.235 135.046 235.235 134.526V128.13C235.235 127.09 235.755 126.57 236.795 126.57H247.403C250.142 126.57 252.499 126.31 254.475 125.79C256.486 125.235 258.497 124.282 260.507 122.93L265.395 119.706L268.619 122.098L262.119 128.13C260.975 129.204 259.554 130.296 257.855 131.406C256.191 132.515 254.233 133.451 251.979 134.214C249.761 134.942 247.195 135.306 244.283 135.306H236.015ZM273.663 135.306C271.687 135.306 269.919 135.011 268.359 134.422C266.799 133.832 265.499 132.844 264.459 131.458C263.419 130.036 262.639 128.095 262.119 125.634L266.435 121.526C266.435 122.704 266.522 123.64 266.695 124.334C266.903 124.992 267.215 125.495 267.631 125.842C268.047 126.154 268.55 126.362 269.139 126.466C269.763 126.535 270.509 126.57 271.375 126.57H275.951C276.229 126.57 276.419 126.656 276.523 126.83C276.662 127.003 276.731 127.211 276.731 127.454V133.85C276.731 134.335 276.593 134.699 276.315 134.942C276.038 135.184 275.657 135.306 275.171 135.306H273.663ZM266.799 123.294L266.591 123.19C264.823 123.19 263.298 123.051 262.015 122.774C260.733 122.462 259.589 122.08 258.583 121.63C257.613 121.179 256.677 120.728 255.775 120.278C254.874 119.827 253.921 119.446 252.915 119.134C251.945 118.822 250.801 118.666 249.483 118.666C248.617 118.666 247.837 118.804 247.143 119.082C246.485 119.359 245.947 119.775 245.531 120.33C245.15 120.78 244.821 121.092 244.543 121.266C244.301 121.439 243.867 121.526 243.243 121.526H240.383C239.309 121.526 238.771 121.075 238.771 120.174C238.771 119.03 239.031 117.92 239.551 116.846C240.106 115.771 240.869 114.818 241.839 113.986C242.81 113.119 243.954 112.443 245.271 111.958C246.589 111.472 248.027 111.23 249.587 111.23C251.182 111.23 252.586 111.386 253.799 111.698C255.047 112.01 256.209 112.408 257.283 112.894C258.358 113.379 259.433 113.882 260.507 114.402C261.582 114.887 262.761 115.286 264.043 115.598C265.326 115.91 266.817 116.066 268.515 116.066H270.647C271.202 116.066 271.549 116.187 271.687 116.43C271.861 116.672 271.947 117.054 271.947 117.574V121.838C271.947 122.288 271.809 122.652 271.531 122.93C271.289 123.172 270.925 123.294 270.439 123.294H266.799ZM261.027 142.638C260.785 142.846 260.49 142.932 260.143 142.898C259.831 142.898 259.554 142.794 259.311 142.586L256.711 139.986C256.503 139.743 256.399 139.466 256.399 139.154C256.399 138.842 256.503 138.547 256.711 138.27L259.311 135.67C259.554 135.427 259.831 135.306 260.143 135.306C260.455 135.306 260.733 135.427 260.975 135.67L263.523 138.27C263.801 138.547 263.939 138.842 263.939 139.154C263.974 139.466 263.87 139.76 263.627 140.038L261.027 142.638Z" fill="#F4F4F4"/>
<path d="M219.359 135.306C218.839 135.306 218.579 135.046 218.579 134.526V128.13C218.579 127.09 219.099 126.57 220.139 126.57H220.503C221.89 126.57 222.895 126.223 223.519 125.53C224.143 124.836 224.455 123.588 224.455 121.786V116.846C224.455 115.875 224.906 115.39 225.807 115.39H230.071C230.972 115.39 231.423 115.875 231.423 116.846V121.786C231.423 123.623 231.804 124.888 232.567 125.582C233.364 126.24 234.595 126.57 236.259 126.57H236.779C237.299 126.57 237.559 126.83 237.559 127.35V133.746C237.559 134.786 237.039 135.306 235.999 135.306C234.196 135.306 232.515 134.976 230.955 134.318C229.395 133.624 228.147 132.411 227.211 130.678C226.414 132.515 225.304 133.746 223.883 134.37C222.496 134.994 220.988 135.306 219.359 135.306ZM224.715 110.866C224.507 111.074 224.23 111.178 223.883 111.178C223.571 111.178 223.294 111.056 223.051 110.814L220.451 108.214C220.243 107.971 220.122 107.694 220.087 107.382C220.087 107.07 220.208 106.775 220.451 106.498L223.051 103.898C223.294 103.655 223.571 103.534 223.883 103.534C224.195 103.534 224.472 103.655 224.715 103.898L227.315 106.498C227.558 106.775 227.679 107.087 227.679 107.434C227.714 107.746 227.61 108.023 227.367 108.266L224.715 110.866ZM232.723 110.866C232.48 111.108 232.203 111.212 231.891 111.178C231.579 111.143 231.302 111.022 231.059 110.814L228.407 108.214C228.199 107.971 228.095 107.694 228.095 107.382C228.095 107.035 228.199 106.74 228.407 106.498L231.059 103.898C231.302 103.655 231.562 103.534 231.839 103.534C232.151 103.534 232.428 103.655 232.671 103.898L235.271 106.498C235.548 106.775 235.687 107.07 235.687 107.382C235.722 107.694 235.6 107.988 235.323 108.266L232.723 110.866Z" fill="#F4F4F4"/>
<path d="M192.92 135.306C189.211 135.306 186.039 134.89 183.404 134.058C180.77 133.191 178.742 131.822 177.32 129.95C175.934 128.043 175.24 125.547 175.24 122.462C175.24 121.248 175.396 120.018 175.708 118.77C176.02 117.487 176.436 116.222 176.956 114.974C177.234 114.384 177.511 114.038 177.788 113.934C178.066 113.795 178.412 113.795 178.828 113.934L182.156 114.818C182.711 114.991 183.075 115.182 183.248 115.39C183.456 115.598 183.491 115.91 183.352 116.326C183.075 117.192 182.832 118.007 182.624 118.77C182.416 119.532 182.312 120.278 182.312 121.006C182.312 122.531 182.78 123.692 183.716 124.49C184.687 125.287 186.022 125.842 187.72 126.154C189.419 126.431 191.447 126.57 193.804 126.57H200.096C202.315 126.57 204.031 126.223 205.244 125.53C206.492 124.802 207.116 123.415 207.116 121.37V97.1376C207.116 96.791 207.22 96.5136 207.428 96.3056C207.636 96.0976 207.914 95.9937 208.26 95.9937H213.304C213.686 95.9937 213.963 96.0976 214.136 96.3056C214.344 96.5136 214.448 96.791 214.448 97.1376V121.058C214.448 122.444 214.604 123.554 214.916 124.386C215.228 125.183 215.766 125.755 216.528 126.102C217.326 126.414 218.452 126.57 219.908 126.57C220.29 126.57 220.55 126.691 220.688 126.934C220.827 127.142 220.896 127.384 220.896 127.662V133.746C220.896 134.786 220.376 135.306 219.336 135.306C218.296 135.306 217.204 135.202 216.06 134.994C214.916 134.786 213.842 134.439 212.836 133.954C211.831 133.468 210.999 132.81 210.34 131.978C209.231 133.122 207.862 133.971 206.232 134.526C204.638 135.046 202.54 135.306 199.94 135.306H192.92ZM190.216 119.134C189.454 119.134 189.072 118.787 189.072 118.094V116.222C189.072 115.39 189.454 114.974 190.216 114.974H196.248C197.046 114.974 197.444 114.714 197.444 114.194C197.444 113.986 197.375 113.812 197.236 113.674C197.132 113.5 196.872 113.292 196.456 113.05L193.648 111.178C192.99 110.796 192.47 110.346 192.088 109.826C191.707 109.306 191.516 108.682 191.516 107.954C191.516 107.052 191.742 106.324 192.192 105.77C192.678 105.215 193.336 104.678 194.168 104.158L199.004 101.194C199.455 100.916 199.802 100.812 200.044 100.882C200.287 100.951 200.512 101.142 200.72 101.454L201.552 102.962C201.899 103.62 201.743 104.123 201.084 104.47L196.56 107.07C196.075 107.382 195.832 107.642 195.832 107.85C195.832 108.023 195.884 108.162 195.988 108.266C196.127 108.37 196.283 108.474 196.456 108.578L198.9 110.086C200.183 110.848 200.98 111.611 201.292 112.374C201.639 113.102 201.812 113.864 201.812 114.662C201.812 116.152 201.344 117.279 200.408 118.042C199.507 118.77 198.207 119.134 196.508 119.134H190.216Z" fill="#F4F4F4"/>
<path d="M151.454 135.254C151.107 135.254 150.812 135.15 150.57 134.942C150.362 134.699 150.258 134.404 150.258 134.058V97.1897C150.258 96.843 150.362 96.5657 150.57 96.3577C150.812 96.115 151.107 95.9937 151.454 95.9937H156.082C156.463 95.9937 156.758 96.115 156.966 96.3577C157.174 96.5657 157.278 96.843 157.278 97.1897V134.058C157.278 134.404 157.174 134.699 156.966 134.942C156.758 135.15 156.463 135.254 156.082 135.254H151.454Z" fill="#F4F4F4"/>
<path d="M129.121 135.306C128.601 135.306 128.341 135.046 128.341 134.526V128.13C128.341 127.09 128.861 126.57 129.901 126.57C130.975 126.57 131.842 126.414 132.501 126.102C133.159 125.79 133.627 125.252 133.905 124.49C134.182 123.692 134.321 122.583 134.321 121.162V97.1897C134.321 96.843 134.425 96.5657 134.633 96.3577C134.875 96.115 135.17 95.9937 135.517 95.9937H140.145C140.526 95.9937 140.821 96.115 141.029 96.3577C141.237 96.5657 141.341 96.843 141.341 97.1897V121.058C141.341 123.38 141.15 125.443 140.769 127.246C140.422 129.048 139.798 130.556 138.897 131.77C137.995 132.983 136.747 133.884 135.153 134.474C133.593 135.063 131.582 135.34 129.121 135.306Z" fill="#F4F4F4"/>
<path d="M96.3161 135.306C96.0735 135.306 95.8828 135.236 95.7441 135.098C95.6055 134.994 95.5361 134.768 95.5361 134.422V127.974C95.5361 127.488 95.6748 127.142 95.9521 126.934C96.2295 126.691 96.6108 126.57 97.0961 126.57C98.4481 126.57 99.6441 126.552 100.684 126.518C101.724 126.448 102.677 126.362 103.544 126.258C104.445 126.154 105.329 126.032 106.196 125.894L101.516 121.786C100.996 121.335 100.649 120.902 100.476 120.486C100.303 120.07 100.216 119.55 100.216 118.926L100.268 115.806C100.268 115.043 100.407 114.471 100.684 114.09C100.996 113.708 101.429 113.396 101.984 113.154C103.787 112.322 105.659 111.732 107.6 111.386C109.576 111.039 111.5 110.866 113.372 110.866C117.809 110.866 121.033 111.49 123.044 112.738C125.055 113.986 126.06 115.719 126.06 117.938C126.06 118.978 125.852 119.914 125.436 120.746C125.055 121.543 124.448 122.358 123.616 123.19C122.784 123.987 121.727 124.923 120.444 125.998C121.345 126.206 122.281 126.362 123.252 126.466C124.223 126.535 125.176 126.57 126.112 126.57H129.856C130.411 126.57 130.688 126.847 130.688 127.402V133.694C130.688 134.768 130.133 135.306 129.024 135.306H125.54C124.084 135.306 122.749 135.254 121.536 135.15C120.357 135.046 119.248 134.855 118.208 134.578C117.203 134.3 116.249 133.954 115.348 133.538C114.447 133.122 113.545 132.602 112.644 131.978C111.604 132.636 110.581 133.191 109.576 133.642C108.605 134.058 107.531 134.404 106.352 134.682C105.173 134.924 103.769 135.08 102.14 135.15C100.545 135.254 98.6041 135.306 96.3161 135.306ZM113.58 124.594C115.105 123.658 116.319 122.808 117.22 122.046C118.121 121.248 118.589 120.555 118.624 119.966C118.624 119.55 118.468 119.168 118.156 118.822C117.879 118.475 117.359 118.198 116.596 117.99C115.833 117.747 114.759 117.626 113.372 117.626C112.367 117.626 111.327 117.73 110.252 117.938C109.177 118.111 108.033 118.406 106.82 118.822L113.58 124.594Z" fill="#F4F4F4"/>
<path d="M73.9057 148.098C73.351 148.098 72.9524 147.942 72.7097 147.63C72.467 147.352 72.3457 146.971 72.3457 146.486V141.702C72.3457 141.182 72.5017 140.8 72.8137 140.558C73.1257 140.35 73.559 140.246 74.1137 140.246H75.3097C78.5684 140.246 80.9084 139.414 82.3297 137.75C83.751 136.086 84.4617 133.763 84.4617 130.782C84.4617 129.568 84.3404 128.338 84.0977 127.09C83.8897 125.807 83.6644 124.594 83.4217 123.45L82.3817 118.874C82.2777 118.284 82.3297 117.851 82.5377 117.574C82.7457 117.262 83.1964 117.019 83.8897 116.846L87.6337 115.91C88.1537 115.771 88.535 115.788 88.7777 115.962C89.0204 116.1 89.1937 116.308 89.2977 116.586C89.4017 116.863 89.4884 117.175 89.5577 117.522L91.0137 123.242C91.2217 124.108 91.551 124.802 92.0017 125.322C92.4524 125.807 93.007 126.136 93.6657 126.31C94.359 126.483 95.1564 126.57 96.0577 126.57H97.0457C97.6004 126.57 97.8777 126.83 97.8777 127.35V133.746C97.8777 134.786 97.3577 135.306 96.3177 135.306C95.0697 135.306 93.943 135.167 92.9377 134.89C91.967 134.612 91.343 134.248 91.0657 133.798C90.9617 135.774 90.5977 137.611 89.9737 139.31C89.3497 141.043 88.4137 142.568 87.1657 143.886C85.9177 145.203 84.3577 146.226 82.4857 146.954C80.6484 147.716 78.4644 148.098 75.9337 148.098H73.9057Z" fill="#F4F4F4"/>
<path d="M59.8056 135.306C59.5283 135.306 59.3203 135.219 59.1816 135.046C59.043 134.872 58.9736 134.664 58.9736 134.422V127.922C58.9736 127.436 59.1123 127.09 59.3896 126.882C59.667 126.674 60.0483 126.57 60.5336 126.57H60.8976C62.1803 126.57 63.1163 126.24 63.7056 125.582C64.295 124.888 64.5896 123.814 64.5896 122.358C64.5896 121.942 64.555 121.508 64.4856 121.058C64.451 120.607 64.3816 120.139 64.2776 119.654L63.3936 115.598C63.2896 114.974 63.3416 114.523 63.5496 114.246C63.7923 113.968 64.1736 113.778 64.6936 113.674L68.6456 112.79C69.755 112.547 70.431 113.015 70.6736 114.194L71.7656 119.602C71.939 120.364 72.0603 121.179 72.1296 122.046C72.2336 122.912 72.2856 123.658 72.2856 124.282C72.2856 127.575 71.4536 130.244 69.7896 132.29C68.1256 134.3 65.6643 135.306 62.4056 135.306H59.8056ZM65.6296 145.81C65.387 146.018 65.0923 146.104 64.7456 146.07C64.4336 146.07 64.1563 145.966 63.9136 145.758L61.3136 143.158C61.1056 142.915 61.0016 142.638 61.0016 142.326C61.0016 142.014 61.1056 141.719 61.3136 141.442L63.9136 138.842C64.1563 138.599 64.4336 138.478 64.7456 138.478C65.0576 138.478 65.335 138.599 65.5776 138.842L68.1256 141.442C68.403 141.719 68.5416 142.014 68.5416 142.326C68.5763 142.638 68.4723 142.932 68.2296 143.21L65.6296 145.81Z" fill="#F4F4F4"/>
<path d="M42.1325 135.306C41.6125 135.306 41.3525 135.046 41.3525 134.526V128.13C41.3525 127.09 41.8725 126.57 42.9125 126.57C44.6805 126.57 45.8939 126.188 46.5525 125.426C47.2112 124.663 47.5405 123.346 47.5405 121.474V116.898C47.5405 115.927 47.9912 115.442 48.8925 115.442H53.5205C54.4219 115.442 54.8725 115.927 54.8725 116.898V121.474C54.8725 122.652 55.0285 123.623 55.3405 124.386C55.6872 125.148 56.2592 125.703 57.0565 126.05C57.8885 126.396 59.0499 126.57 60.5405 126.57C61.0605 126.57 61.3205 126.83 61.3205 127.35V133.746C61.3205 134.786 60.8005 135.306 59.7605 135.306C57.1605 135.306 54.9939 134.976 53.2605 134.318C51.5272 133.659 50.2965 132.446 49.5685 130.678C49.0139 132.342 48.0605 133.538 46.7085 134.266C45.3912 134.959 43.8659 135.306 42.1325 135.306ZM48.5285 145.498C48.3205 145.706 48.0605 145.792 47.7485 145.758C47.4365 145.758 47.1592 145.654 46.9165 145.446L44.4205 142.95C44.2125 142.707 44.0912 142.43 44.0565 142.118C44.0565 141.806 44.1779 141.546 44.4205 141.338L46.9165 138.842C47.1592 138.599 47.4192 138.478 47.6965 138.478C48.0085 138.478 48.2859 138.599 48.5285 138.842L50.9725 141.338C51.2152 141.546 51.3365 141.806 51.3365 142.118C51.3712 142.464 51.2672 142.759 51.0245 143.002L48.5285 145.498ZM55.7565 145.498C55.5485 145.706 55.2885 145.792 54.9765 145.758C54.6992 145.758 54.4392 145.654 54.1965 145.446L51.6485 142.95C51.4405 142.707 51.3192 142.43 51.2845 142.118C51.2845 141.806 51.4059 141.546 51.6485 141.338L54.1965 138.842C54.4392 138.599 54.6992 138.478 54.9765 138.478C55.2539 138.478 55.4965 138.599 55.7045 138.842L58.2005 141.338C58.4432 141.546 58.5645 141.806 58.5645 142.118C58.5992 142.464 58.4952 142.759 58.2525 143.002L55.7565 145.498Z" fill="#F4F4F4"/>
<path d="M40.5676 135.306C37.8636 135.306 35.7143 134.682 34.1196 133.434C32.5596 132.186 31.5196 130.227 30.9996 127.558C30.133 128.84 29.0236 129.828 27.6716 130.522C26.3196 131.18 24.7423 131.51 22.9396 131.51C20.097 131.51 17.9476 130.782 16.4916 129.326C15.0356 127.835 14.3076 125.842 14.3076 123.346C14.3076 121.855 14.6369 120.416 15.2956 119.03C15.9543 117.643 17.0463 116.343 18.5716 115.13C20.1316 113.916 22.1943 112.842 24.7596 111.906L30.3236 109.878V107.538C30.3236 107.122 30.4276 106.81 30.6356 106.602C30.8783 106.359 31.2076 106.238 31.6236 106.238H36.2516C36.5983 106.238 36.8583 106.359 37.0316 106.602C37.2396 106.81 37.3436 107.087 37.3436 107.434V121.786C37.3436 123.727 37.6383 125.01 38.2276 125.634C38.8169 126.258 39.9263 126.57 41.5556 126.57H42.9076C43.1503 126.57 43.341 126.656 43.4796 126.83C43.6183 127.003 43.6876 127.194 43.6876 127.402V133.85C43.6876 134.82 43.1676 135.306 42.1276 135.306H40.5676ZM25.1236 124.438C26.129 124.438 27.013 124.23 27.7756 123.814C28.573 123.363 29.197 122.756 29.6476 121.994C30.0983 121.231 30.3236 120.364 30.3236 119.394V116.274L26.2156 117.574C24.7596 118.059 23.6503 118.648 22.8876 119.342C22.125 120 21.7436 120.763 21.7436 121.63C21.7436 122.496 22.0383 123.19 22.6276 123.71C23.2516 124.195 24.0836 124.438 25.1236 124.438ZM30.6876 102.078C30.4796 102.286 30.2023 102.39 29.8556 102.39C29.5436 102.39 29.2663 102.268 29.0236 102.026L26.4236 99.4257C26.2156 99.183 26.0943 98.9057 26.0596 98.5937C26.0596 98.2817 26.1809 97.987 26.4236 97.7097L29.0236 95.1096C29.2663 94.867 29.5436 94.7457 29.8556 94.7457C30.1676 94.7457 30.4449 94.867 30.6876 95.1096L33.2876 97.7097C33.5303 97.987 33.6516 98.299 33.6516 98.6457C33.6863 98.9577 33.5823 99.235 33.3396 99.4777L30.6876 102.078ZM38.6956 102.078C38.453 102.32 38.1756 102.424 37.8636 102.39C37.5516 102.355 37.2743 102.234 37.0316 102.026L34.3796 99.4257C34.1716 99.183 34.0676 98.9057 34.0676 98.5937C34.0676 98.247 34.1716 97.9523 34.3796 97.7097L37.0316 95.1096C37.2743 94.867 37.5343 94.7457 37.8116 94.7457C38.1236 94.7457 38.4009 94.867 38.6436 95.1096L41.2436 97.7097C41.521 97.987 41.6596 98.2817 41.6596 98.5937C41.6943 98.9057 41.573 99.2003 41.2956 99.4777L38.6956 102.078Z" fill="#F4F4F4"/>
<path d="M1.72284 123.502C1.34151 123.502 1.02951 123.38 0.786842 123.138C0.544176 122.86 0.422844 122.548 0.422844 122.202V99.8937C0.422844 99.5123 0.544176 99.2003 0.786842 98.9577C1.02951 98.715 1.34151 98.5937 1.72284 98.5937H7.70284C8.04951 98.5937 8.34418 98.715 8.58685 98.9577C8.86418 99.2003 9.00284 99.5123 9.00284 99.8937V122.202C9.00284 122.548 8.86418 122.86 8.58685 123.138C8.34418 123.38 8.04951 123.502 7.70284 123.502H1.72284ZM1.51484 134.994C1.13351 134.994 0.821509 134.872 0.578842 134.63C0.336176 134.387 0.214844 134.075 0.214844 133.694V127.298C0.214844 126.916 0.336176 126.604 0.578842 126.362C0.821509 126.084 1.13351 125.946 1.51484 125.946H7.91084C8.25751 125.946 8.55218 126.084 8.79484 126.362C9.07218 126.604 9.21084 126.916 9.21084 127.298V133.694C9.21084 134.075 9.07218 134.387 8.79484 134.63C8.55218 134.872 8.25751 134.994 7.91084 134.994H1.51484Z" fill="#F4F4F4"/>
<path d="M526.842 48.3057C526.495 48.3057 526.27 48.2017 526.166 47.9937C526.027 47.8203 525.958 47.6123 525.958 47.3697V40.9737C525.958 40.4883 526.097 40.1417 526.374 39.9337C526.651 39.691 527.033 39.5697 527.518 39.5697H535.942L535.006 41.9617C534.347 41.5803 533.689 41.0777 533.03 40.4537C532.406 39.8297 531.869 39.0323 531.418 38.0617C531.002 37.091 530.794 35.9123 530.794 34.5257C530.794 31.995 531.331 29.863 532.406 28.1297C533.481 26.3963 534.937 25.0617 536.774 24.1257C538.611 23.1897 540.622 22.7216 542.806 22.7216C544.089 22.7216 545.371 22.8603 546.654 23.1377C547.971 23.415 549.219 23.8137 550.398 24.3337C550.814 24.4723 551.109 24.6977 551.282 25.0097C551.49 25.287 551.542 25.6337 551.438 26.0497L550.294 30.7297C550.121 31.3537 549.895 31.7523 549.618 31.9257C549.341 32.0643 548.942 32.0297 548.422 31.8217C547.729 31.5097 546.862 31.2497 545.822 31.0417C544.782 30.8337 543.811 30.7297 542.91 30.7297C541.211 30.7297 539.877 31.111 538.906 31.8737C537.935 32.6363 537.45 33.6243 537.45 34.8377C537.45 35.6003 537.727 36.311 538.282 36.9697C538.837 37.6283 539.599 38.1483 540.57 38.5297C541.541 38.8763 542.633 39.0497 543.846 39.0497C544.435 39.0497 545.077 39.0323 545.77 38.9977C546.463 38.963 547.313 38.859 548.318 38.6857L553.726 37.9057C554.211 37.8363 554.558 37.871 554.766 38.0097C554.974 38.1483 555.043 38.4603 554.974 38.9457L554.298 44.8217C554.263 45.2723 554.159 45.671 553.986 46.0177C553.813 46.3297 553.397 46.5203 552.738 46.5897L547.226 47.4217C545.458 47.6643 543.725 47.855 542.026 47.9937C540.362 48.1323 538.646 48.219 536.878 48.2537C535.145 48.2883 533.238 48.3057 531.158 48.3057H526.842Z" fill="#F4F4F4"/>
<path d="M476.007 58.2897C472.852 58.2897 470.165 57.6657 467.947 56.4177C465.728 55.1697 464.029 53.4363 462.851 51.2177C461.707 48.999 461.135 46.451 461.135 43.5737C461.135 42.0137 461.343 40.419 461.759 38.7897C462.175 37.1257 462.712 35.5483 463.371 34.0577C463.579 33.5723 463.839 33.2603 464.151 33.1217C464.463 32.9483 464.827 32.9483 465.243 33.1217L468.623 34.2137C469.143 34.3523 469.437 34.5603 469.507 34.8377C469.611 35.115 469.559 35.4963 469.351 35.9817C468.935 37.0217 468.605 38.0443 468.363 39.0497C468.12 40.0203 467.999 40.9737 467.999 41.9097C467.999 44.4057 468.727 46.399 470.183 47.8897C471.639 49.3457 473.805 50.0737 476.683 50.0737C479.768 50.0737 482.091 49.3283 483.651 47.8377C485.211 46.347 485.991 44.111 485.991 41.1297C485.991 40.1243 485.869 38.9977 485.627 37.7497C485.384 36.467 485.055 35.0283 484.639 33.4337C484.535 32.9483 484.569 32.567 484.743 32.2897C484.951 31.9777 485.28 31.7697 485.731 31.6657L490.255 30.7297C490.74 30.6603 491.087 30.747 491.295 30.9897C491.537 31.1977 491.693 31.4923 491.763 31.8737C492.04 33.0177 492.265 33.971 492.439 34.7337C492.647 35.4963 492.82 36.2243 492.959 36.9177C493.201 37.923 493.652 38.6337 494.311 39.0497C495.004 39.4657 495.923 39.6737 497.067 39.6737C498.453 39.6737 499.407 39.327 499.927 38.6337C500.447 37.9403 500.707 36.8657 500.707 35.4097V31.5617C500.707 31.111 500.828 30.7643 501.071 30.5217C501.313 30.2443 501.643 30.1057 502.059 30.1057H506.375C506.791 30.1057 507.12 30.2443 507.363 30.5217C507.605 30.799 507.727 31.1803 507.727 31.6657V35.4617C507.727 36.8483 508.004 37.8883 508.559 38.5817C509.113 39.275 510.067 39.639 511.419 39.6737C512.736 39.6737 513.655 39.2923 514.175 38.5297C514.729 37.7323 515.007 36.623 515.007 35.2017V30.2617C515.007 29.8803 515.093 29.5857 515.267 29.3777C515.44 29.135 515.7 29.0137 516.047 29.0137H520.779C521.125 29.0137 521.42 29.135 521.663 29.3777C521.905 29.5857 522.027 29.8803 522.027 30.2617V35.3057C522.027 36.9003 522.356 38.0097 523.015 38.6337C523.708 39.2577 524.887 39.5697 526.551 39.5697H527.539C528.059 39.5697 528.319 39.8297 528.319 40.3497V46.7457C528.319 47.7857 527.781 48.3057 526.707 48.3057C524.488 48.3057 522.651 48.0457 521.195 47.5257C519.773 47.0057 518.629 46.087 517.763 44.7697C517.139 45.983 516.203 46.867 514.955 47.4217C513.741 47.9763 512.441 48.2537 511.055 48.2537C509.46 48.2537 507.952 47.9763 506.531 47.4217C505.144 46.867 504.035 45.9483 503.203 44.6657C502.925 45.2897 502.527 45.879 502.007 46.4337C501.521 46.9883 500.88 47.439 500.083 47.7857C499.32 48.0977 498.367 48.2537 497.223 48.2537C496.079 48.2537 495.004 48.063 493.999 47.6817C492.993 47.2657 492.179 46.659 491.555 45.8617C491.243 47.803 490.619 49.5363 489.683 51.0617C488.747 52.587 487.585 53.887 486.199 54.9617C484.847 56.0363 483.304 56.851 481.571 57.4057C479.837 57.995 477.983 58.2897 476.007 58.2897ZM505.075 17.9377C504.832 18.1803 504.555 18.3017 504.243 18.3017C503.965 18.267 503.705 18.1283 503.463 17.8857L500.967 15.3897C500.481 14.8697 500.481 14.367 500.967 13.8817L503.463 11.3857C503.983 10.8657 504.503 10.8657 505.023 11.3857L507.467 13.8817C507.987 14.4363 508.021 14.9563 507.571 15.4417L505.075 17.9377ZM501.123 25.2177C500.915 25.4257 500.637 25.5297 500.291 25.5297C499.979 25.5297 499.701 25.4083 499.459 25.1657L496.859 22.5657C496.616 22.323 496.495 22.0457 496.495 21.7337C496.495 21.387 496.616 21.1097 496.859 20.9017L499.459 18.3017C500.013 17.7123 500.568 17.7123 501.123 18.3017L503.723 20.9017C503.965 21.1443 504.087 21.439 504.087 21.7857C504.121 22.0977 504.017 22.375 503.775 22.6177L501.123 25.2177ZM509.131 25.2177C508.888 25.4603 508.611 25.5643 508.299 25.5297C507.987 25.495 507.709 25.3737 507.467 25.1657L504.815 22.5657C504.607 22.323 504.503 22.0283 504.503 21.6817C504.503 21.335 504.607 21.075 504.815 20.9017L507.467 18.3017C508.021 17.7817 508.559 17.7817 509.079 18.3017L511.679 20.9017C511.921 21.1097 512.06 21.387 512.095 21.7337C512.129 22.0457 512.008 22.3403 511.731 22.6177L509.131 25.2177Z" fill="#F4F4F4"/>
<path d="M432.845 48.3056C432.568 48.3056 432.36 48.219 432.221 48.0456C432.083 47.8723 432.013 47.6643 432.013 47.4216V40.9216C432.013 40.4363 432.152 40.0896 432.429 39.8816C432.707 39.6736 433.088 39.5696 433.573 39.5696H433.937C435.22 39.5696 436.156 39.2403 436.745 38.5816C437.335 37.8883 437.629 36.8136 437.629 35.3576C437.629 34.9416 437.595 34.5083 437.525 34.0576C437.491 33.607 437.421 33.139 437.317 32.6536L436.433 28.5976C436.329 27.9736 436.381 27.523 436.589 27.2456C436.832 26.9683 437.213 26.7776 437.733 26.6736L441.685 25.7896C442.795 25.547 443.471 26.015 443.713 27.1936L444.805 32.6017C444.979 33.3643 445.1 34.179 445.169 35.0456C445.273 35.9123 445.325 36.6576 445.325 37.2816C445.325 40.575 444.493 43.2443 442.829 45.2896C441.165 47.3003 438.704 48.3056 435.445 48.3056H432.845ZM436.381 21.8896C436.173 22.0976 435.896 22.2016 435.549 22.2016C435.237 22.2016 434.96 22.0803 434.717 21.8376L432.117 19.2376C431.909 18.995 431.805 18.7176 431.805 18.4056C431.771 18.0936 431.875 17.799 432.117 17.5216L434.717 14.9216C434.96 14.679 435.237 14.5576 435.549 14.5576C435.861 14.5576 436.139 14.679 436.381 14.9216L438.981 17.5216C439.224 17.799 439.345 18.111 439.345 18.4576C439.38 18.7696 439.276 19.047 439.033 19.2896L436.381 21.8896ZM444.389 21.8896C444.147 22.1323 443.869 22.2363 443.557 22.2016C443.245 22.167 442.968 22.0456 442.725 21.8376L440.073 19.2376C439.865 18.995 439.761 18.7176 439.761 18.4056C439.761 18.059 439.865 17.7643 440.073 17.5216L442.725 14.9216C442.968 14.679 443.228 14.5576 443.505 14.5576C443.817 14.5576 444.095 14.679 444.337 14.9216L446.937 17.5216C447.215 17.799 447.353 18.0936 447.353 18.4056C447.388 18.7176 447.267 19.0123 446.989 19.2896L444.389 21.8896Z" fill="#F4F4F4"/>
<path d="M393.64 48.3056C393.12 48.3056 392.86 48.0456 392.86 47.5256V41.1296C392.86 40.0896 393.38 39.5696 394.42 39.5696H405.028C407.767 39.5696 410.124 39.3096 412.1 38.7896C414.111 38.235 416.122 37.2816 418.132 35.9296L423.02 32.7056L426.244 35.0976L419.744 41.1296C418.6 42.2043 417.179 43.2963 415.48 44.4056C413.816 45.515 411.858 46.451 409.604 47.2136C407.386 47.9416 404.82 48.3056 401.908 48.3056H393.64ZM431.288 48.3056C429.312 48.3056 427.544 48.011 425.984 47.4216C424.424 46.8323 423.124 45.8443 422.084 44.4576C421.044 43.0363 420.264 41.095 419.744 38.6336L424.06 34.5256C424.06 35.7043 424.147 36.6403 424.32 37.3336C424.528 37.9923 424.84 38.495 425.256 38.8416C425.672 39.1536 426.175 39.3616 426.764 39.4656C427.388 39.535 428.134 39.5696 429 39.5696H433.576C433.854 39.5696 434.044 39.6563 434.148 39.8296C434.287 40.003 434.356 40.211 434.356 40.4536V46.8496C434.356 47.335 434.218 47.699 433.94 47.9416C433.663 48.1843 433.282 48.3056 432.796 48.3056H431.288ZM424.424 36.2936L424.216 36.1896C422.448 36.1896 420.923 36.051 419.64 35.7736C418.358 35.4616 417.214 35.0803 416.208 34.6296C415.238 34.179 414.302 33.7283 413.4 33.2776C412.499 32.827 411.546 32.4456 410.54 32.1336C409.57 31.8216 408.426 31.6656 407.108 31.6656C406.242 31.6656 405.462 31.8043 404.768 32.0816C404.11 32.359 403.572 32.775 403.156 33.3296C402.775 33.7803 402.446 34.0923 402.168 34.2656C401.926 34.439 401.492 34.5256 400.868 34.5256H398.008C396.934 34.5256 396.396 34.075 396.396 33.1736C396.396 32.0296 396.656 30.9203 397.176 29.8456C397.731 28.771 398.494 27.8176 399.464 26.9856C400.435 26.119 401.579 25.443 402.896 24.9576C404.214 24.4723 405.652 24.2296 407.212 24.2296C408.807 24.2296 410.211 24.3856 411.424 24.6976C412.672 25.0096 413.834 25.4083 414.908 25.8936C415.983 26.379 417.058 26.8816 418.132 27.4016C419.207 27.887 420.386 28.2856 421.668 28.5976C422.951 28.9096 424.442 29.0656 426.14 29.0656H428.272C428.827 29.0656 429.174 29.187 429.312 29.4296C429.486 29.6723 429.572 30.0536 429.572 30.5736V34.8376C429.572 35.2883 429.434 35.6523 429.156 35.9296C428.914 36.1723 428.55 36.2936 428.064 36.2936H424.424ZM418.652 55.6376C418.41 55.8456 418.115 55.9323 417.768 55.8976C417.456 55.8976 417.179 55.7936 416.936 55.5856L414.336 52.9856C414.128 52.743 414.024 52.4656 414.024 52.1536C414.024 51.8416 414.128 51.547 414.336 51.2696L416.936 48.6696C417.179 48.427 417.456 48.3056 417.768 48.3056C418.08 48.3056 418.358 48.427 418.6 48.6696L421.148 51.2696C421.426 51.547 421.564 51.8416 421.564 52.1536C421.599 52.4656 421.495 52.7603 421.252 53.0376L418.652 55.6376Z" fill="#F4F4F4"/>
<path d="M371.23 61.0977C370.675 61.0977 370.277 60.9417 370.034 60.6297C369.791 60.3523 369.67 59.971 369.67 59.4857V54.7017C369.67 54.1817 369.826 53.8003 370.138 53.5577C370.45 53.3497 370.883 53.2457 371.438 53.2457H372.634C375.893 53.2457 378.233 52.4137 379.654 50.7497C381.075 49.0857 381.786 46.763 381.786 43.7817C381.786 42.5683 381.665 41.3377 381.422 40.0897C381.214 38.807 380.989 37.5937 380.746 36.4497L379.706 31.8737C379.602 31.2843 379.654 30.851 379.862 30.5737C380.07 30.2617 380.521 30.019 381.214 29.8457L384.958 28.9097C385.478 28.771 385.859 28.7883 386.102 28.9617C386.345 29.1003 386.518 29.3083 386.622 29.5857C386.726 29.863 386.813 30.175 386.882 30.5217L388.338 36.2417C388.546 37.1083 388.875 37.8017 389.326 38.3217C389.777 38.807 390.331 39.1363 390.99 39.3097C391.683 39.483 392.481 39.5697 393.382 39.5697H394.37C394.925 39.5697 395.202 39.8297 395.202 40.3497V46.7457C395.202 47.7857 394.682 48.3057 393.642 48.3057C392.394 48.3057 391.267 48.167 390.262 47.8897C389.291 47.6123 388.667 47.2483 388.39 46.7977C388.286 48.7737 387.922 50.611 387.298 52.3097C386.674 54.043 385.738 55.5683 384.49 56.8857C383.242 58.203 381.682 59.2257 379.81 59.9537C377.973 60.7163 375.789 61.0977 373.258 61.0977H371.23Z" fill="#F4F4F4"/>
<path d="M357.13 48.3057C356.853 48.3057 356.645 48.219 356.506 48.0457C356.367 47.8723 356.298 47.6643 356.298 47.4217V40.9217C356.298 40.4363 356.437 40.0897 356.714 39.8817C356.991 39.6737 357.373 39.5697 357.858 39.5697H358.222C359.505 39.5697 360.441 39.2403 361.03 38.5817C361.619 37.8883 361.914 36.8137 361.914 35.3577C361.914 34.9417 361.879 34.5083 361.81 34.0577C361.775 33.607 361.706 33.139 361.602 32.6537L360.718 28.5977C360.614 27.9737 360.666 27.523 360.874 27.2457C361.117 26.9683 361.498 26.7777 362.018 26.6737L365.97 25.7897C367.079 25.547 367.755 26.015 367.998 27.1937L369.09 32.6017C369.263 33.3643 369.385 34.179 369.454 35.0457C369.558 35.9123 369.61 36.6577 369.61 37.2817C369.61 40.575 368.778 43.2443 367.114 45.2897C365.45 47.3003 362.989 48.3057 359.73 48.3057H357.13ZM362.954 58.8097C362.711 59.0177 362.417 59.1043 362.07 59.0697C361.758 59.0697 361.481 58.9657 361.238 58.7577L358.638 56.1577C358.43 55.915 358.326 55.6377 358.326 55.3257C358.326 55.0137 358.43 54.719 358.638 54.4417L361.238 51.8417C361.481 51.599 361.758 51.4777 362.07 51.4777C362.382 51.4777 362.659 51.599 362.902 51.8417L365.45 54.4417C365.727 54.719 365.866 55.0137 365.866 55.3257C365.901 55.6377 365.797 55.9323 365.554 56.2097L362.954 58.8097Z" fill="#F4F4F4"/>
<path d="M355.512 48.3057C352.808 48.3057 350.659 47.6817 349.064 46.4337C347.504 45.1857 346.464 43.227 345.944 40.5577C345.077 41.8403 343.968 42.8283 342.616 43.5217C341.264 44.1803 339.687 44.5097 337.884 44.5097C335.041 44.5097 332.892 43.7817 331.436 42.3257C329.98 40.835 329.252 38.8417 329.252 36.3457C329.252 34.855 329.581 33.4163 330.24 32.0297C330.899 30.643 331.991 29.343 333.516 28.1297C335.076 26.9163 337.139 25.8417 339.704 24.9057L345.268 22.8777V20.5377C345.268 20.1217 345.372 19.8097 345.58 19.6017C345.823 19.359 346.152 19.2377 346.568 19.2377H351.196C351.543 19.2377 351.803 19.359 351.976 19.6017C352.184 19.8097 352.288 20.087 352.288 20.4337V34.7857C352.288 36.727 352.583 38.0097 353.172 38.6337C353.761 39.2577 354.871 39.5697 356.5 39.5697H357.852C358.095 39.5697 358.285 39.6563 358.424 39.8297C358.563 40.003 358.632 40.1937 358.632 40.4017V46.8497C358.632 47.8203 358.112 48.3057 357.072 48.3057H355.512ZM340.068 37.4377C341.073 37.4377 341.957 37.2297 342.72 36.8137C343.517 36.363 344.141 35.7563 344.592 34.9937C345.043 34.231 345.268 33.3643 345.268 32.3937V29.2737L341.16 30.5737C339.704 31.059 338.595 31.6483 337.832 32.3417C337.069 33.0003 336.688 33.763 336.688 34.6297C336.688 35.4963 336.983 36.1897 337.572 36.7097C338.196 37.195 339.028 37.4377 340.068 37.4377ZM345.632 15.0777C345.424 15.2857 345.147 15.3897 344.8 15.3897C344.488 15.3897 344.211 15.2683 343.968 15.0257L341.368 12.4257C341.16 12.183 341.039 11.9057 341.004 11.5937C341.004 11.2817 341.125 10.987 341.368 10.7097L343.968 8.10965C344.211 7.86699 344.488 7.74565 344.8 7.74565C345.112 7.74565 345.389 7.86699 345.632 8.10965L348.232 10.7097C348.475 10.987 348.596 11.299 348.596 11.6457C348.631 11.9577 348.527 12.235 348.284 12.4777L345.632 15.0777ZM353.64 15.0777C353.397 15.3203 353.12 15.4243 352.808 15.3897C352.496 15.355 352.219 15.2337 351.976 15.0257L349.324 12.4257C349.116 12.183 349.012 11.9057 349.012 11.5937C349.012 11.247 349.116 10.9523 349.324 10.7097L351.976 8.10965C352.219 7.86699 352.479 7.74565 352.756 7.74565C353.068 7.74565 353.345 7.86699 353.588 8.10965L356.188 10.7097C356.465 10.987 356.604 11.2817 356.604 11.5937C356.639 11.9057 356.517 12.2003 356.24 12.4777L353.64 15.0777Z" fill="#F4F4F4"/>
<path d="M303.83 48.4096C302.894 48.375 302.045 48.2883 301.282 48.1496C300.519 48.0456 299.739 47.8723 298.942 47.6296C298.179 47.3523 297.313 46.9883 296.342 46.5376C295.406 46.087 294.297 45.515 293.014 44.8216C292.251 45.723 291.454 46.4336 290.622 46.9536C289.79 47.439 288.941 47.7856 288.074 47.9936C287.242 48.2016 286.41 48.3056 285.578 48.3056C285.058 48.3056 284.798 48.0456 284.798 47.5256V41.1296C284.798 40.0896 285.318 39.5696 286.358 39.5696C287.051 39.5696 287.641 39.483 288.126 39.3096C288.646 39.1016 289.166 38.703 289.686 38.1136C290.241 37.4896 290.899 36.5363 291.662 35.2536C292.979 32.9656 294.262 31.215 295.51 30.0016C296.793 28.7536 298.075 27.887 299.358 27.4016C300.675 26.8816 302.01 26.6216 303.362 26.6216C305.199 26.6216 306.898 27.0723 308.458 27.9736C310.018 28.875 311.266 30.175 312.202 31.8736C313.138 33.5723 313.606 35.635 313.606 38.0616C313.606 39.4483 313.398 40.783 312.982 42.0656C312.566 43.3136 311.942 44.4403 311.11 45.4456C310.278 46.4163 309.255 47.1616 308.042 47.6816C306.829 48.2016 305.425 48.4443 303.83 48.4096ZM303.934 40.9216C304.731 40.9216 305.39 40.6963 305.91 40.2456C306.43 39.7603 306.69 38.9803 306.69 37.9056C306.725 37.0736 306.551 36.3456 306.17 35.7216C305.823 35.063 305.338 34.5603 304.714 34.2136C304.125 33.8323 303.466 33.6416 302.738 33.6416C302.079 33.6416 301.455 33.7976 300.866 34.1096C300.277 34.387 299.67 34.8723 299.046 35.5656C298.422 36.2243 297.729 37.1776 296.966 38.4256C298.214 39.119 299.237 39.639 300.034 39.9856C300.831 40.3323 301.525 40.575 302.114 40.7136C302.738 40.8176 303.345 40.887 303.934 40.9216Z" fill="#F4F4F4"/>
<path d="M256.738 48.3057C256.114 48.3057 255.802 47.9763 255.802 47.3177V40.7657C255.802 40.3843 255.923 40.0897 256.166 39.8817C256.408 39.6737 256.703 39.5697 257.05 39.5697C258.02 39.5697 258.956 39.5697 259.858 39.5697C260.759 39.535 261.574 39.5003 262.302 39.4657C263.064 39.3963 263.636 39.327 264.018 39.2577C263.463 38.6337 262.926 37.9577 262.406 37.2297C261.92 36.5017 261.539 35.7217 261.262 34.8897C260.984 34.0577 260.828 33.1563 260.794 32.1856C260.794 30.3137 261.262 28.615 262.198 27.0897C263.134 25.5297 264.434 24.299 266.098 23.3977C267.762 22.4617 269.651 21.9937 271.766 21.9937C273.811 21.9937 275.596 22.4617 277.122 23.3977C278.647 24.3337 279.826 25.5817 280.658 27.1417C281.524 28.667 281.958 30.331 281.958 32.1337C281.958 33.4857 281.68 34.751 281.126 35.9297C280.606 37.0737 279.808 38.183 278.734 39.2577C279.462 39.3617 280.103 39.431 280.658 39.4657C281.247 39.5003 281.958 39.535 282.79 39.5697C283.656 39.5697 284.783 39.5697 286.17 39.5697C286.447 39.5697 286.672 39.6563 286.846 39.8297C287.054 40.003 287.158 40.2283 287.158 40.5057V46.4857C287.158 47.699 286.516 48.3057 285.234 48.3057C283.188 48.3057 281.507 48.271 280.19 48.2017C278.872 48.1323 277.728 48.011 276.758 47.8377C275.822 47.6643 274.92 47.4043 274.054 47.0577C273.222 46.6763 272.251 46.2083 271.142 45.6537C270.31 46.1737 269.512 46.6243 268.75 47.0057C268.022 47.3523 267.155 47.6297 266.15 47.8377C265.179 48.011 263.948 48.1323 262.458 48.2017C260.967 48.271 259.06 48.3057 256.738 48.3057ZM271.558 37.5937C272.806 36.8657 273.742 36.0856 274.366 35.2537C275.024 34.4216 275.354 33.5897 275.354 32.7577C275.354 31.6483 275.007 30.747 274.314 30.0536C273.62 29.3603 272.719 29.0137 271.61 29.0137C270.5 29.0137 269.564 29.343 268.802 30.0017C268.039 30.6257 267.658 31.475 267.658 32.5497C267.658 33.5897 267.987 34.5083 268.646 35.3057C269.339 36.0683 270.31 36.831 271.558 37.5937ZM268.646 17.4697C268.438 17.6777 268.16 17.7817 267.814 17.7817C267.502 17.7817 267.224 17.6603 266.982 17.4177L264.382 14.8177C264.174 14.575 264.052 14.2976 264.018 13.9856C264.018 13.6736 264.139 13.379 264.382 13.1017L266.982 10.5017C267.224 10.259 267.502 10.1376 267.814 10.1376C268.126 10.1376 268.403 10.259 268.646 10.5017L271.246 13.1017C271.488 13.379 271.61 13.691 271.61 14.0376C271.644 14.3496 271.54 14.627 271.298 14.8697L268.646 17.4697ZM276.654 17.4697C276.411 17.7123 276.134 17.8163 275.822 17.7817C275.51 17.747 275.232 17.6257 274.99 17.4177L272.338 14.8177C272.13 14.575 272.026 14.2976 272.026 13.9856C272.026 13.639 272.13 13.3443 272.338 13.1017L274.99 10.5017C275.232 10.259 275.492 10.1376 275.77 10.1376C276.082 10.1376 276.359 10.259 276.602 10.5017L279.202 13.1017C279.479 13.379 279.618 13.6736 279.618 13.9856C279.652 14.2976 279.531 14.5923 279.254 14.8697L276.654 17.4697Z" fill="#F4F4F4"/>
<path d="M256.557 48.3057H253.749C251.808 48.3057 250.179 47.959 248.861 47.2657C247.544 46.5723 246.539 45.463 245.845 43.9377C245.187 42.4123 244.857 40.4537 244.857 38.0617V10.2417C244.857 9.86032 244.979 9.56565 245.221 9.35765C245.499 9.11499 245.828 8.99365 246.209 8.99365H250.785C251.167 8.99365 251.444 9.11499 251.617 9.35765C251.791 9.56565 251.877 9.84299 251.877 10.1897V35.1497C251.877 36.3283 252.016 37.247 252.293 37.9057C252.571 38.5297 253.004 38.963 253.593 39.2057C254.183 39.4483 254.945 39.5697 255.881 39.5697H257.337C257.857 39.5697 258.117 39.8297 258.117 40.3497V46.7457C258.117 47.7857 257.597 48.3057 256.557 48.3057Z" fill="#F4F4F4"/>
<path d="M225.505 48.3057C225.228 48.3057 225.02 48.219 224.881 48.0457C224.742 47.8723 224.673 47.6643 224.673 47.4217V40.9217C224.673 40.4363 224.812 40.0897 225.089 39.8817C225.366 39.6737 225.748 39.5697 226.233 39.5697H226.597C227.88 39.5697 228.816 39.2403 229.405 38.5817C229.994 37.8883 230.289 36.8137 230.289 35.3577C230.289 34.9417 230.254 34.5083 230.185 34.0577C230.15 33.607 230.081 33.139 229.977 32.6537L229.093 28.5977C228.989 27.9737 229.041 27.523 229.249 27.2457C229.492 26.9683 229.873 26.7777 230.393 26.6737L234.345 25.7897C235.454 25.547 236.13 26.015 236.373 27.1937L237.465 32.6017C237.638 33.3643 237.76 34.179 237.829 35.0457C237.933 35.9123 237.985 36.6577 237.985 37.2817C237.985 40.575 237.153 43.2443 235.489 45.2897C233.825 47.3003 231.364 48.3057 228.105 48.3057H225.505ZM231.329 58.8097C231.086 59.0177 230.792 59.1043 230.445 59.0697C230.133 59.0697 229.856 58.9657 229.613 58.7577L227.013 56.1577C226.805 55.915 226.701 55.6377 226.701 55.3257C226.701 55.0137 226.805 54.719 227.013 54.4417L229.613 51.8417C229.856 51.599 230.133 51.4777 230.445 51.4777C230.757 51.4777 231.034 51.599 231.277 51.8417L233.825 54.4417C234.102 54.719 234.241 55.0137 234.241 55.3257C234.276 55.6377 234.172 55.9323 233.929 56.2097L231.329 58.8097Z" fill="#F4F4F4"/>
<path d="M208.543 48.3057C208.023 48.3057 207.763 48.0457 207.763 47.5257V41.1297C207.763 40.0897 208.283 39.5697 209.323 39.5697C211.056 39.5697 212.217 39.1883 212.807 38.4257C213.431 37.663 213.743 36.3283 213.743 34.4217V10.4497C213.743 9.47899 214.193 8.99365 215.095 8.99365H219.411C220.312 8.99365 220.763 9.47899 220.763 10.4497V34.4217C220.763 35.7043 220.901 36.727 221.179 37.4897C221.491 38.2177 222.045 38.755 222.843 39.1017C223.64 39.4137 224.767 39.5697 226.223 39.5697C226.743 39.5697 227.003 39.8297 227.003 40.3497V46.7457C227.003 47.7857 226.483 48.3057 225.443 48.3057C223.675 48.3057 222.011 47.9763 220.451 47.3177C218.925 46.6243 217.695 45.411 216.759 43.6777C215.892 45.515 214.731 46.7457 213.275 47.3697C211.853 47.9937 210.276 48.3057 208.543 48.3057Z" fill="#F4F4F4"/>
<path d="M191.886 48.3056C191.366 48.3056 191.106 48.0456 191.106 47.5256V41.1296C191.106 40.0896 191.626 39.5696 192.666 39.5696H193.03C194.417 39.5696 195.422 39.223 196.046 38.5296C196.67 37.8363 196.982 36.5883 196.982 34.7856V29.8456C196.982 28.875 197.433 28.3896 198.334 28.3896H202.598C203.5 28.3896 203.95 28.875 203.95 29.8456V34.7856C203.95 36.623 204.332 37.8883 205.094 38.5816C205.892 39.2403 207.122 39.5696 208.786 39.5696H209.306C209.826 39.5696 210.086 39.8296 210.086 40.3496V46.7456C210.086 47.7856 209.566 48.3056 208.526 48.3056C206.724 48.3056 205.042 47.9763 203.482 47.3176C201.922 46.6243 200.674 45.411 199.738 43.6776C198.941 45.515 197.832 46.7456 196.41 47.3696C195.024 47.9936 193.516 48.3056 191.886 48.3056ZM197.242 23.8656C197.034 24.0736 196.757 24.1776 196.41 24.1776C196.098 24.1776 195.821 24.0563 195.578 23.8136L192.978 21.2136C192.77 20.971 192.649 20.6936 192.614 20.3816C192.614 20.0696 192.736 19.775 192.978 19.4976L195.578 16.8976C195.821 16.655 196.098 16.5336 196.41 16.5336C196.722 16.5336 197 16.655 197.242 16.8976L199.842 19.4976C200.085 19.775 200.206 20.087 200.206 20.4336C200.241 20.7456 200.137 21.023 199.894 21.2656L197.242 23.8656ZM205.25 23.8656C205.008 24.1083 204.73 24.2123 204.418 24.1776C204.106 24.143 203.829 24.0216 203.586 23.8136L200.934 21.2136C200.726 20.971 200.622 20.6936 200.622 20.3816C200.622 20.035 200.726 19.7403 200.934 19.4976L203.586 16.8976C203.829 16.655 204.089 16.5336 204.366 16.5336C204.678 16.5336 204.956 16.655 205.198 16.8976L207.798 19.4976C208.076 19.775 208.214 20.0696 208.214 20.3816C208.249 20.6936 208.128 20.9883 207.85 21.2656L205.25 23.8656Z" fill="#F4F4F4"/>
<path d="M165.448 48.3057C161.738 48.3057 158.566 47.8897 155.932 47.0577C153.297 46.191 151.269 44.8217 149.848 42.9497C148.461 41.043 147.768 38.547 147.768 35.4617C147.768 34.2483 147.924 33.0177 148.236 31.7697C148.548 30.487 148.964 29.2217 149.484 27.9737C149.761 27.3843 150.038 27.0377 150.316 26.9337C150.593 26.795 150.94 26.795 151.356 26.9337L154.684 27.8177C155.238 27.991 155.602 28.1817 155.776 28.3897C155.984 28.5977 156.018 28.9097 155.88 29.3257C155.602 30.1923 155.36 31.007 155.152 31.7697C154.944 32.5323 154.84 33.2777 154.84 34.0057C154.84 35.531 155.308 36.6923 156.244 37.4897C157.214 38.287 158.549 38.8417 160.248 39.1537C161.946 39.431 163.974 39.5697 166.332 39.5697H172.624C174.842 39.5697 176.558 39.223 177.772 38.5297C179.02 37.8017 179.644 36.415 179.644 34.3697V10.1377C179.644 9.79099 179.748 9.51365 179.956 9.30565C180.164 9.09765 180.441 8.99365 180.788 8.99365H185.832C186.213 8.99365 186.49 9.09765 186.664 9.30565C186.872 9.51365 186.976 9.79099 186.976 10.1377V34.0577C186.976 35.4443 187.132 36.5537 187.444 37.3857C187.756 38.183 188.293 38.755 189.056 39.1017C189.853 39.4137 190.98 39.5697 192.436 39.5697C192.817 39.5697 193.077 39.691 193.216 39.9337C193.354 40.1417 193.424 40.3843 193.424 40.6617V46.7457C193.424 47.7857 192.904 48.3057 191.864 48.3057C190.824 48.3057 189.732 48.2017 188.588 47.9937C187.444 47.7857 186.369 47.439 185.364 46.9537C184.358 46.4683 183.526 45.8097 182.868 44.9777C181.758 46.1217 180.389 46.971 178.76 47.5257C177.165 48.0457 175.068 48.3057 172.468 48.3057H165.448ZM162.744 32.1337C161.981 32.1337 161.6 31.787 161.6 31.0937V29.2217C161.6 28.3897 161.981 27.9737 162.744 27.9737H168.776C169.573 27.9737 169.972 27.7137 169.972 27.1937C169.972 26.9857 169.902 26.8123 169.764 26.6737C169.66 26.5003 169.4 26.2923 168.984 26.0497L166.176 24.1777C165.517 23.7963 164.997 23.3457 164.616 22.8257C164.234 22.3057 164.044 21.6817 164.044 20.9537C164.044 20.0523 164.269 19.3243 164.72 18.7697C165.205 18.215 165.864 17.6777 166.696 17.1577L171.532 14.1937C171.982 13.9163 172.329 13.8123 172.572 13.8817C172.814 13.951 173.04 14.1417 173.248 14.4537L174.08 15.9617C174.426 16.6203 174.27 17.123 173.612 17.4697L169.088 20.0697C168.602 20.3817 168.36 20.6417 168.36 20.8497C168.36 21.023 168.412 21.1617 168.516 21.2657C168.654 21.3697 168.81 21.4737 168.984 21.5777L171.428 23.0857C172.71 23.8483 173.508 24.611 173.82 25.3737C174.166 26.1017 174.34 26.8643 174.34 27.6617C174.34 29.1523 173.872 30.279 172.936 31.0417C172.034 31.7697 170.734 32.1337 169.036 32.1337H162.744Z" fill="#F4F4F4"/>
<path d="M531.29 92.3256C530.111 92.3256 529.106 91.927 528.274 91.1296C527.442 90.3323 527.026 89.275 527.026 87.9576C527.026 86.987 527.269 86.0683 527.754 85.2016C528.239 84.335 528.915 83.6416 529.782 83.1216C530.649 82.6016 531.602 82.3416 532.642 82.3416C533.786 82.3416 534.756 82.7403 535.554 83.5376C536.386 84.3003 536.802 85.3576 536.802 86.7096C536.802 87.715 536.559 88.651 536.074 89.5176C535.589 90.3496 534.93 91.0256 534.098 91.5456C533.301 92.0656 532.365 92.3256 531.29 92.3256ZM531.862 89.3616C532.486 89.3616 532.971 89.171 533.318 88.7896C533.699 88.3736 533.89 87.871 533.89 87.2816C533.89 86.727 533.717 86.2763 533.37 85.9296C533.023 85.583 532.59 85.4096 532.07 85.4096C531.446 85.4096 530.943 85.6003 530.562 85.9816C530.18 86.363 529.99 86.8483 529.99 87.4376C529.99 87.9923 530.163 88.4603 530.51 88.8416C530.856 89.1883 531.307 89.3616 531.862 89.3616Z" fill="#E7F1A8"/>
<path d="M493.362 101.794C492.738 101.932 492.426 101.707 492.426 101.118V99.8177C492.426 99.2977 492.668 98.9857 493.154 98.8817L502.826 96.5417C503.45 96.3683 503.762 96.5937 503.762 97.2177V98.5177C503.762 99.0377 503.519 99.3497 503.034 99.4537L493.362 101.794Z" fill="#E7F1A8"/>
<path d="M468.022 146.07C467.398 146.208 467.086 145.983 467.086 145.394V144.042C467.086 143.522 467.329 143.21 467.814 143.106L477.486 140.766C478.11 140.592 478.422 140.818 478.422 141.442V142.794C478.422 143.314 478.179 143.626 477.694 143.73L468.022 146.07Z" fill="#E7F1A8"/>
<path d="M421.405 146.07C420.781 146.208 420.469 145.983 420.469 145.394V144.042C420.469 143.522 420.711 143.21 421.197 143.106L430.869 140.766C431.493 140.592 431.805 140.818 431.805 141.442V142.794C431.805 143.314 431.562 143.626 431.077 143.73L421.405 146.07Z" fill="#E7F1A8"/>
<path d="M399.114 103.118C398.005 103.326 397.103 103.135 396.41 102.546C395.717 101.956 395.37 100.864 395.37 99.2697V97.7617C395.37 97.2417 395.613 96.9297 396.098 96.8257L396.878 96.5657C397.467 96.427 397.762 96.6697 397.762 97.2937V98.4377C397.762 98.9923 397.866 99.3563 398.074 99.5297C398.317 99.703 398.663 99.7723 399.114 99.7377C399.565 99.6683 399.877 99.5123 400.05 99.2697C400.223 99.027 400.31 98.6283 400.31 98.0737V96.6697C400.31 96.1497 400.553 95.8377 401.038 95.7337L401.87 95.5777C402.459 95.4737 402.754 95.7163 402.754 96.3057V97.5537C402.754 98.0737 402.841 98.4203 403.014 98.5937C403.222 98.7323 403.551 98.7843 404.002 98.7497C404.522 98.6803 404.869 98.5243 405.042 98.2817C405.215 98.0043 405.302 97.5537 405.302 96.9297V95.6817C405.302 95.1617 405.545 94.8497 406.03 94.7457L406.862 94.5377C407.451 94.399 407.746 94.6417 407.746 95.2657V96.8777C407.746 98.5416 407.434 99.807 406.81 100.674C406.186 101.506 405.337 101.991 404.262 102.13C403.707 102.199 403.205 102.182 402.754 102.078C402.303 101.939 401.905 101.662 401.558 101.246C400.899 102.32 400.085 102.944 399.114 103.118ZM396.826 93.8617C396.202 94.0003 395.89 93.775 395.89 93.1857V91.8857C395.89 91.3657 396.133 91.0536 396.618 90.9496L406.29 88.6097C406.914 88.4363 407.226 88.6617 407.226 89.2857V90.5857C407.226 91.1056 406.983 91.4177 406.498 91.5217L396.826 93.8617Z" fill="#E7F1A8"/>
<path d="M321.823 151.07C321.199 151.208 320.887 150.983 320.887 150.394V149.042C320.887 148.522 321.129 148.21 321.615 148.106L331.287 145.766C331.911 145.592 332.223 145.818 332.223 146.442V147.794C332.223 148.314 331.98 148.626 331.495 148.73L321.823 151.07Z" fill="#E7F1A8"/>
<path d="M306.842 92.7937C306.218 92.9323 305.906 92.707 305.906 92.1177V90.8177C305.906 90.2977 306.149 89.9857 306.634 89.8817L316.306 87.5417C316.93 87.3683 317.242 87.5937 317.242 88.2177V89.5177C317.242 90.0377 317 90.3497 316.514 90.4537L306.842 92.7937Z" fill="#E7F1A8"/>
<path d="M288.809 101.326C287.63 101.326 286.625 100.927 285.793 100.13C284.961 99.3323 284.545 98.275 284.545 96.9576C284.545 95.987 284.788 95.0683 285.273 94.2016C285.758 93.335 286.434 92.6416 287.301 92.1216C288.168 91.6016 289.121 91.3416 290.161 91.3416C291.305 91.3416 292.276 91.7403 293.073 92.5376C293.905 93.3003 294.321 94.3576 294.321 95.7096C294.321 96.715 294.078 97.651 293.593 98.5176C293.108 99.3496 292.449 100.026 291.617 100.546C290.82 101.066 289.884 101.326 288.809 101.326ZM289.381 98.3616C290.005 98.3616 290.49 98.171 290.837 97.7896C291.218 97.3736 291.409 96.871 291.409 96.2816C291.409 95.727 291.236 95.2763 290.889 94.9296C290.542 94.583 290.109 94.4096 289.589 94.4096C288.965 94.4096 288.462 94.6003 288.081 94.9816C287.7 95.363 287.509 95.8483 287.509 96.4376C287.509 96.9923 287.682 97.4603 288.029 97.8416C288.376 98.1883 288.826 98.3616 289.381 98.3616Z" fill="#E7F1A8"/>
<path d="M245.245 101.794C244.621 101.932 244.309 101.707 244.309 101.118V99.8177C244.309 99.2977 244.551 98.9857 245.037 98.8817L254.709 96.5417C255.333 96.3683 255.645 96.5937 255.645 97.2177V98.5177C255.645 99.0377 255.402 99.3497 254.917 99.4537L245.245 101.794Z" fill="#E7F1A8"/>
<path d="M223.206 146.07C222.582 146.208 222.27 145.983 222.27 145.394V144.042C222.27 143.522 222.512 143.21 222.998 143.106L232.67 140.766C233.294 140.592 233.606 140.818 233.606 141.442V142.794C233.606 143.314 233.363 143.626 232.878 143.73L223.206 146.07Z" fill="#E7F1A8"/>
<path d="M191.416 97.7937C190.792 97.9323 190.48 97.707 190.48 97.1177V95.8177C190.48 95.2977 190.723 94.9857 191.208 94.8817L200.88 92.5417C201.504 92.3683 201.816 92.5937 201.816 93.2177V94.5177C201.816 95.0377 201.574 95.3497 201.088 95.4537L191.416 97.7937Z" fill="#E7F1A8"/>
<path d="M137.125 92.3256C135.947 92.3256 134.941 91.927 134.109 91.1296C133.277 90.3323 132.861 89.275 132.861 87.9576C132.861 86.987 133.104 86.0683 133.589 85.2016C134.075 84.335 134.751 83.6416 135.617 83.1216C136.484 82.6016 137.437 82.3416 138.477 82.3416C139.621 82.3416 140.592 82.7403 141.389 83.5376C142.221 84.3003 142.637 85.3576 142.637 86.7096C142.637 87.715 142.395 88.651 141.909 89.5176C141.424 90.3496 140.765 91.0256 139.933 91.5456C139.136 92.0656 138.2 92.3256 137.125 92.3256ZM137.697 89.3616C138.321 89.3616 138.807 89.171 139.153 88.7896C139.535 88.3736 139.725 87.871 139.725 87.2816C139.725 86.727 139.552 86.2763 139.205 85.9296C138.859 85.583 138.425 85.4096 137.905 85.4096C137.281 85.4096 136.779 85.6003 136.397 85.9816C136.016 86.363 135.825 86.8483 135.825 87.4376C135.825 87.9923 135.999 88.4603 136.345 88.8416C136.692 89.1883 137.143 89.3616 137.697 89.3616Z" fill="#E7F1A8"/>
<path d="M108.541 101.794C107.917 101.932 107.605 101.707 107.605 101.118V99.8177C107.605 99.2977 107.848 98.9857 108.333 98.8817L118.005 96.5417C118.629 96.3683 118.941 96.5937 118.941 97.2177V98.5177C118.941 99.0377 118.699 99.3497 118.213 99.4537L108.541 101.794Z" fill="#E7F1A8"/>
<path d="M78.936 103.794C78.312 103.932 78 103.707 78 103.118V101.818C78 101.298 78.2427 100.986 78.728 100.882L88.4 98.5417C89.024 98.3683 89.336 98.5937 89.336 99.2177V100.518C89.336 101.038 89.0933 101.35 88.608 101.454L78.936 103.794Z" fill="#E7F1A8"/>
<path d="M57.8227 153.07C57.1987 153.208 56.8867 152.983 56.8867 152.394V151.042C56.8867 150.522 57.1294 150.21 57.6147 150.106L67.2867 147.766C67.9107 147.592 68.2227 147.818 68.2227 148.442V149.794C68.2227 150.314 67.9801 150.626 67.4947 150.73L57.8227 153.07Z" fill="#E7F1A8"/>
<path d="M50.3485 103.118C49.2392 103.326 48.3378 103.135 47.6445 102.546C46.9512 101.956 46.6045 100.864 46.6045 99.2697V97.7617C46.6045 97.2417 46.8472 96.9297 47.3325 96.8257L48.1125 96.5657C48.7018 96.427 48.9965 96.6697 48.9965 97.2937V98.4377C48.9965 98.9923 49.1005 99.3563 49.3085 99.5297C49.5512 99.703 49.8978 99.7723 50.3485 99.7377C50.7992 99.6683 51.1112 99.5123 51.2845 99.2697C51.4578 99.027 51.5445 98.6283 51.5445 98.0737V96.6697C51.5445 96.1497 51.7872 95.8377 52.2725 95.7337L53.1045 95.5777C53.6938 95.4737 53.9885 95.7163 53.9885 96.3057V97.5537C53.9885 98.0737 54.0752 98.4203 54.2485 98.5937C54.4565 98.7323 54.7858 98.7843 55.2365 98.7497C55.7565 98.6803 56.1032 98.5243 56.2765 98.2817C56.4498 98.0043 56.5365 97.5537 56.5365 96.9297V95.6817C56.5365 95.1617 56.7792 94.8497 57.2645 94.7457L58.0965 94.5377C58.6858 94.399 58.9805 94.6417 58.9805 95.2657V96.8777C58.9805 98.5416 58.6685 99.807 58.0445 100.674C57.4205 101.506 56.5712 101.991 55.4965 102.13C54.9418 102.199 54.4392 102.182 53.9885 102.078C53.5378 101.939 53.1392 101.662 52.7925 101.246C52.1338 102.32 51.3192 102.944 50.3485 103.118ZM48.0605 93.8617C47.4365 94.0003 47.1245 93.775 47.1245 93.1857V91.8857C47.1245 91.3657 47.3672 91.0536 47.8525 90.9496L57.5245 88.6097C58.1485 88.4363 58.4605 88.6617 58.4605 89.2857V90.5857C58.4605 91.1056 58.2178 91.4177 57.7325 91.5217L48.0605 93.8617Z" fill="#E7F1A8"/>
<path d="M24.0415 146.07C23.4175 146.208 23.1055 145.983 23.1055 145.394V144.042C23.1055 143.522 23.3481 143.21 23.8335 143.106L33.5055 140.766C34.1295 140.592 34.4415 140.818 34.4415 141.442V142.794C34.4415 143.314 34.1988 143.626 33.7135 143.73L24.0415 146.07Z" fill="#E7F1A8"/>
<path d="M537.795 59.0697C537.171 59.2083 536.859 58.983 536.859 58.3937V57.0417C536.859 56.5217 537.102 56.2097 537.587 56.1057L547.259 53.7657C547.883 53.5923 548.195 53.8177 548.195 54.4417V55.7937C548.195 56.3137 547.952 56.6257 547.467 56.7297L537.795 59.0697Z" fill="#E7F1A8"/>
<path d="M498.637 10.3256C497.458 10.3256 496.453 9.92698 495.621 9.12964C494.789 8.33231 494.373 7.27498 494.373 5.95765C494.373 4.98698 494.616 4.06831 495.101 3.20164C495.586 2.33498 496.262 1.64164 497.129 1.12164C497.996 0.601643 498.949 0.341644 499.989 0.341644C501.133 0.341644 502.104 0.74031 502.901 1.53764C503.733 2.30031 504.149 3.35765 504.149 4.70965C504.149 5.71498 503.906 6.65098 503.421 7.51764C502.936 8.34964 502.277 9.02565 501.445 9.54565C500.648 10.0656 499.712 10.3256 498.637 10.3256ZM499.209 7.36165C499.833 7.36165 500.318 7.17098 500.665 6.78964C501.046 6.37365 501.237 5.87098 501.237 5.28164C501.237 4.72698 501.064 4.27631 500.717 3.92964C500.37 3.58298 499.937 3.40965 499.417 3.40965C498.793 3.40965 498.29 3.60031 497.909 3.98165C497.528 4.36298 497.337 4.84831 497.337 5.43765C497.337 5.99231 497.51 6.46031 497.857 6.84164C498.204 7.18831 498.654 7.36165 499.209 7.36165Z" fill="#E7F1A8"/>
<path d="M434.608 11.7936C433.984 11.9323 433.672 11.707 433.672 11.1176V9.81765C433.672 9.29764 433.915 8.98564 434.4 8.88164L444.072 6.54164C444.696 6.36831 445.008 6.59364 445.008 7.21764V8.51764C445.008 9.03765 444.765 9.34964 444.28 9.45364L434.608 11.7936Z" fill="#E7F1A8"/>
<path d="M406.977 14.3256C405.798 14.3256 404.793 13.927 403.961 13.1296C403.129 12.3323 402.713 11.275 402.713 9.95765C402.713 8.98698 402.956 8.06831 403.441 7.20164C403.926 6.33498 404.602 5.64164 405.469 5.12164C406.336 4.60164 407.289 4.34164 408.329 4.34164C409.473 4.34164 410.444 4.74031 411.241 5.53764C412.073 6.30031 412.489 7.35765 412.489 8.70965C412.489 9.71498 412.246 10.651 411.761 11.5176C411.276 12.3496 410.617 13.0256 409.785 13.5456C408.988 14.0656 408.052 14.3256 406.977 14.3256ZM407.549 11.3616C408.173 11.3616 408.658 11.171 409.005 10.7896C409.386 10.3736 409.577 9.87098 409.577 9.28164C409.577 8.72698 409.404 8.27631 409.057 7.92964C408.71 7.58298 408.277 7.40965 407.757 7.40965C407.133 7.40965 406.63 7.60031 406.249 7.98165C405.868 8.36298 405.677 8.84831 405.677 9.43765C405.677 9.99231 405.85 10.4603 406.197 10.8416C406.544 11.1883 406.994 11.3616 407.549 11.3616Z" fill="#E7F1A8"/>
<path d="M375.143 69.0697C374.519 69.2083 374.207 68.983 374.207 68.3937V67.0417C374.207 66.5217 374.45 66.2097 374.935 66.1057L384.607 63.7657C385.231 63.5923 385.543 63.8177 385.543 64.4417V65.7937C385.543 66.3137 385.3 66.6257 384.815 66.7297L375.143 69.0697Z" fill="#E7F1A8"/>
<path d="M358.893 16.7936C358.269 16.9323 357.957 16.707 357.957 16.1176V14.8176C357.957 14.2976 358.2 13.9856 358.685 13.8816L368.357 11.5416C368.981 11.3683 369.293 11.5936 369.293 12.2176V13.5176C369.293 14.0376 369.05 14.3496 368.565 14.4536L358.893 16.7936Z" fill="#E7F1A8"/>
<path d="M337.463 7.79364C336.839 7.93231 336.527 7.70698 336.527 7.11764V5.81765C336.527 5.29764 336.77 4.98564 337.255 4.88164L346.927 2.54164C347.551 2.36831 347.863 2.59364 347.863 3.21764V4.51764C347.863 5.03765 347.621 5.34964 347.135 5.45364L337.463 7.79364Z" fill="#E7F1A8"/>
<path d="M298.614 16.8457C298.025 17.019 297.73 16.811 297.73 16.2217V14.9737C297.73 14.4883 297.956 14.1937 298.406 14.0897L300.746 13.5697C301.96 13.2577 302.948 12.9803 303.71 12.7377C304.473 12.495 305.166 12.183 305.79 11.8017L306.206 12.7897C305.86 12.9283 305.392 12.9977 304.802 12.9977C303.485 12.9977 302.532 12.6337 301.942 11.9057C301.353 11.143 301.058 10.3457 301.058 9.51366C301.058 8.36966 301.457 7.34699 302.254 6.44566C303.086 5.54433 304.161 5.09366 305.478 5.09366C306.38 5.09366 307.194 5.40566 307.922 6.02966C308.685 6.61899 309.066 7.52033 309.066 8.73366C309.066 10.6403 308.373 12.2177 306.986 13.4657C305.634 14.7137 303.814 15.615 301.526 16.1697L298.614 16.8457ZM305.01 10.6057C305.426 10.6057 305.773 10.467 306.05 10.1897C306.328 9.87766 306.466 9.51366 306.466 9.09766C306.466 8.64699 306.328 8.28299 306.05 8.00566C305.808 7.72833 305.478 7.58966 305.062 7.58966C304.612 7.58966 304.248 7.74566 303.97 8.05766C303.693 8.33499 303.554 8.69899 303.554 9.14966C303.554 9.56566 303.676 9.91233 303.918 10.1897C304.196 10.467 304.56 10.6057 305.01 10.6057Z" fill="#E7F1A8"/>
<path d="M267.081 8.79364C266.457 8.93231 266.145 8.70698 266.145 8.11764V6.81765C266.145 6.29764 266.387 5.98564 266.873 5.88164L276.545 3.54164C277.169 3.36831 277.481 3.59364 277.481 4.21764V5.51764C277.481 6.03765 277.238 6.34964 276.753 6.45364L267.081 8.79364Z" fill="#E7F1A8"/>
<path d="M227.268 16.7936C226.644 16.9323 226.332 16.707 226.332 16.1176V14.8176C226.332 14.2976 226.575 13.9856 227.06 13.8816L236.732 11.5416C237.356 11.3683 237.668 11.5936 237.668 12.2176V13.5176C237.668 14.0376 237.425 14.3496 236.94 14.4536L227.268 16.7936Z" fill="#E7F1A8"/>
<path d="M212.541 5.79364C211.917 5.93231 211.605 5.70698 211.605 5.11764V3.81765C211.605 3.29764 211.848 2.98564 212.333 2.88164L222.005 0.541644C222.629 0.368311 222.941 0.593645 222.941 1.21764V2.51764C222.941 3.03764 222.699 3.34964 222.213 3.45364L212.541 5.79364Z" fill="#E7F1A8"/>
<path d="M195.733 59.0697C195.109 59.2083 194.797 58.983 194.797 58.3937V57.0417C194.797 56.5217 195.04 56.2097 195.525 56.1057L205.197 53.7657C205.821 53.5923 206.133 53.8177 206.133 54.4417V55.7937C206.133 56.3137 205.89 56.6257 205.405 56.7297L195.733 59.0697Z" fill="#E7F1A8"/>
<path d="M163.944 10.7936C163.32 10.9323 163.008 10.707 163.008 10.1176V8.81765C163.008 8.29764 163.25 7.98564 163.736 7.88164L173.408 5.54164C174.032 5.36831 174.344 5.59364 174.344 6.21764V7.51764C174.344 8.03765 174.101 8.34964 173.616 8.45364L163.944 10.7936Z" fill="#E7F1A8"/>
</svg>
